<?xml version="1.0" encoding="utf-8" ?>
<svg xmlns="http://www.w3.org/2000/svg" xmlns:xlink="http://www.w3.org/1999/xlink" width="1024" height="1024">
	<path fill="#427AA1" d="M727.243 375.274Q730.626 375.136 734.011 375.082C751.1 374.806 766.594 377.307 779.289 389.752C790.416 400.661 793.384 414.391 793.493 429.485L793.506 587.764L793.531 633.463C793.538 642.551 794.287 652.185 792.72 661.149Q792.423 662.805 792.003 664.433Q791.583 666.062 791.042 667.655Q790.501 669.247 789.843 670.795Q789.185 672.343 788.412 673.837Q787.64 675.331 786.758 676.764Q785.876 678.196 784.889 679.558Q783.903 680.92 782.817 682.205Q781.731 683.489 780.552 684.689Q779.841 685.391 779.101 686.063Q778.362 686.735 777.595 687.376Q776.829 688.017 776.037 688.627Q775.245 689.236 774.429 689.813Q773.612 690.389 772.773 690.932Q771.934 691.474 771.074 691.982Q770.213 692.49 769.332 692.962Q768.451 693.434 767.552 693.87Q766.653 694.306 765.737 694.704Q764.82 695.103 763.889 695.464Q762.957 695.825 762.011 696.147Q761.065 696.469 760.107 696.753Q759.149 697.036 758.18 697.28Q757.21 697.524 756.232 697.728Q755.254 697.932 754.268 698.096Q753.283 698.26 752.291 698.384C738.811 700.188 724.499 698.351 710.883 698.293L618.89 698.298L277.212 697.506C257.828 697.704 239.101 699.256 223.815 685.153C214.053 676.145 209.608 665.177 209.136 652.037C208.592 636.878 209.29 621.599 209.333 606.423L209.46 509.462L209.325 456.7C209.176 442.581 207.963 427.687 210.444 413.738C211.902 405.538 217.497 396.571 223.142 390.59Q223.792 389.9 224.471 389.238Q225.15 388.575 225.855 387.942Q226.561 387.309 227.293 386.706Q228.024 386.103 228.781 385.531Q229.537 384.959 230.317 384.419Q231.096 383.879 231.898 383.372Q232.699 382.866 233.521 382.393Q234.343 381.92 235.184 381.482Q236.025 381.045 236.884 380.642Q237.743 380.24 238.618 379.874Q239.492 379.508 240.382 379.179Q241.271 378.85 242.173 378.559Q243.076 378.268 243.989 378.014Q244.903 377.761 245.827 377.546Q246.75 377.331 247.682 377.155Q248.614 376.979 249.552 376.842C266.154 374.373 283.699 375.728 300.427 375.755L384.025 375.612L619 375.405C655.07 375.338 691.18 376.111 727.243 375.274ZM513.198 506.765C510.469 487.554 508.287 468.373 504.722 449.282C499.691 449.09 494.732 449.049 489.696 449.202C488.89 450.019 488.562 450.542 488.619 451.745C488.844 456.495 489.915 461.453 490.598 466.18Q492.76 480.833 494.75 495.51Q497.057 512.555 499.187 529.623C500.303 538.47 501.201 547.578 503.258 556.255C507.731 555.984 512.33 556.012 516.793 556.411C523.4 538.191 527.534 516.275 530.471 497.041C532.469 504.778 533.712 512.723 535.328 520.55C537.786 532.455 540.499 544.229 543.413 556.029L556.74 556.023C560.284 545.256 561.18 533.267 562.84 522.066C564.075 513.739 565.783 505.248 566.614 496.889C569.472 481.178 570.811 465.295 573.39 449.582C567.905 448.907 562.372 448.954 556.856 449.135C556.069 456.23 550.12 502.571 548.712 505.362C546.451 501.949 538.636 456.885 537.074 449.014C532.61 449.047 528.133 449.008 523.671 449.134C522.279 460.568 520.031 472.013 518.029 483.357C516.681 490.992 515.778 499.476 513.198 506.765ZM616.91 596.899C630.897 607.291 643.193 620.02 657.442 630.081C663.693 624.835 693.676 597.991 698.002 597.591L699.27 598.601Q717.158 614.2 734.776 630.103C736.67 627.893 738.532 625.66 740.58 623.59L711.923 598.253C707.335 594.185 702.419 590.253 698.081 585.936Q676.947 602.252 657.255 620.282C648.871 613.519 640.987 606.112 632.808 599.101C627.557 594.6 622.005 590.497 616.668 586.109C603.456 596.724 591.062 609.11 577.176 618.786C569.173 612.427 561.496 605.663 553.71 599.042C548.526 594.634 543.141 590.388 538.118 585.803C524.62 596.926 511.283 608.342 497.529 619.141Q477.373 602.409 457.595 585.231C449.806 592.365 441.597 599.05 433.58 605.926C428.525 610.262 423.676 614.913 418.504 619.097C404.967 608.566 392.507 596.614 379.278 585.685Q359.161 602.366 339.441 619.514Q319.744 602.034 299.649 585.014C286.249 598.078 271.396 609.599 257.8 622.445C259.58 624.531 261.272 626.601 262.847 628.85Q275.405 618.103 287.822 607.194C291.955 603.591 296.031 599.694 300.381 596.366C314.308 606.858 326.015 620.319 340.076 630.547C353.022 619.045 365.956 607.385 379.245 596.283Q391.215 606.944 403.312 617.462C408.201 621.666 413.329 625.677 418.068 630.043Q429.921 619.711 441.931 609.56C447.169 605.097 452.369 600.236 457.987 596.273C471.433 607.36 484.639 618.864 497.932 630.146Q517.514 612.802 537.941 596.46C551.13 607.534 563.837 619.118 577.295 629.874C582.286 625.456 587.513 621.32 592.559 616.966C600.548 610.072 608.335 603.081 616.91 596.899ZM360.091 555.913C365.738 555.933 371.447 555.795 377.084 556.065Q376.506 523.396 377.049 490.726C380.926 503.28 385.757 515.469 390.473 527.725C394.091 537.126 397.503 546.723 401.853 555.818L416.533 556.011L417.246 555.655C419.004 543.739 417.643 530.927 417.604 518.885L417.534 449.111C411.918 449.101 406.225 449.267 400.618 449.029Q400.243 469.441 400.46 489.856C400.482 497.664 400.825 505.664 400.135 513.44Q393.272 494.745 386.64 475.968C383.407 466.922 380.34 457.18 375.728 448.722Q368.038 448.666 360.349 448.796C359.074 454.172 360.03 478.806 360.028 486.571L359.957 527.228C359.882 536.815 359.536 546.328 360.091 555.913ZM463.593 539.909L448.974 539.942L449.049 512.036Q462.211 511.651 475.378 511.55C474.9 505.913 475.404 500.223 475.157 494.574C466.465 494.597 457.722 494.43 449.039 494.822Q449.076 480.219 448.937 465.616Q464.226 465.787 479.515 465.669L479.447 449.001L457.729 448.746L432.435 448.989C431.137 484.582 432.212 520.41 432.519 556.019L481.036 556.039Q480.834 548.029 480.802 540.017Q472.198 539.915 463.593 539.909ZM343.557 555.92C344.664 541.831 344.141 527.324 344.092 513.191L344.01 449.134C338.735 449.178 333.369 449.005 328.107 449.33C326.464 453.184 327.326 542.221 327.624 556.033C332.825 556.016 338.398 556.378 343.557 555.92ZM597.823 448.936C592.404 466.978 588.957 485.581 584.558 503.892C581.204 517.848 576.837 531.647 573.85 545.668C573.331 548.107 572.075 552.315 572.84 554.681C576.586 557.336 584.68 556.163 589.058 555.949C590.851 548.666 592.485 541.267 594.658 534.086L613.625 534.144C614.349 534.186 615.702 534.009 616.134 534.619C617.737 536.884 620.524 551.981 621.77 555.959L638.079 556.064C633.322 537.286 629.535 518.203 625.042 499.346L616.804 464.068C615.641 459.072 614.065 454.04 613.166 449.005L597.823 448.936ZM666.358 519.318C661.013 496.757 657.316 470.967 650.517 449.211C645.09 449.079 639.556 449.429 634.158 449.169C636.933 463.657 641.17 477.871 643.839 492.371Q648.46 512.058 652.86 531.795C654.668 539.794 656.093 548.301 659.008 555.98L674.172 556L674.28 555.257C675.805 545.02 678.751 534.739 681.081 524.648Q686.85 499.887 692.048 475C693.669 467.395 696.917 457.752 696.377 450.091C695.127 448.712 693.325 448.621 691.514 448.523C689.252 448.402 686.439 448.282 684.223 448.68C682.716 448.802 681.002 448.725 679.696 449.497C676.733 457.581 675.579 469.285 673.973 477.988C671.443 491.705 668.304 505.52 666.358 519.318ZM295.441 469.884C295.81 474.886 296.062 480.127 295.699 485.137C301.232 484.577 306.935 484.632 312.494 484.768C313.031 474.402 312.761 464.146 305.328 456.002C300.381 450.58 294.019 448.408 286.842 448.237C286.447 448.227 286.052 448.219 285.658 448.24C277.786 448.63 270.702 450.506 265.208 456.578C262.11 460.002 260.849 463.738 259.997 468.19C257.876 479.271 259.06 491.798 259.158 503.055C259.247 513.237 258.906 523.495 259.624 533.656C260.081 540.109 262.103 545.522 267.049 549.916C272.855 555.075 280.783 557.185 288.426 556.525C295.213 555.939 302.643 552.8 307.074 547.468C313.147 540.158 312.971 529.626 312.974 520.636C309.939 520.594 297.668 519.853 295.814 521.204L295.773 521.426C295.833 526.009 296.042 530.625 295.375 535.173C292.491 538.761 290.156 540.183 285.727 541.276C282.45 540.336 278.653 539.293 276.973 535.987C275.614 533.312 275.379 484.886 275.614 478.586C275.726 475.593 275.709 471.74 276.854 468.935C277.668 466.941 279.179 465.184 281.19 464.351C283.946 463.21 287.328 463.903 289.929 465.132C292.262 466.234 293.864 467.89 295.441 469.884ZM723.71 540.294C722.414 530.59 724.215 520.308 723.649 510.495C732.779 510.712 742.393 509.896 751.443 510.798C751.641 505.977 752.669 499.544 750.731 495.066C745.587 492.401 729.675 493.599 723.438 494.013C723.38 484.583 722.981 475.028 723.32 465.612C734.536 465.792 745.668 465.642 756.881 465.46C757.04 459.97 757.318 454.454 757.232 448.962C746.591 448.864 735.517 448.138 724.925 448.74C718.915 448.787 712.772 448.586 706.782 448.982Q706.031 502.469 707.048 555.951C723.647 556.024 740.388 556.482 756.976 555.882C757.054 550.644 757.43 545.216 756.992 539.999C745.946 540 734.735 539.631 723.71 540.294Z"/>
	<path fill="#427AA1" d="M604.472 481.232C607.222 485.079 611.844 512.219 612.765 518.497L607 518.403L597.776 518.488C599.305 506.038 602.783 493.729 604.472 481.232Z"/>
	<path fill="#427AA1" d="M353.024 136.214C360.985 135.223 370.182 136.859 377.982 138.471C408.626 144.805 434.823 162.202 452.035 188.411C472.847 220.101 473.625 251.203 466.123 287.12C496.663 286.201 527.497 286.337 558.041 287.074C553.294 274.257 552.128 259.009 552.66 245.439Q552.708 244.049 552.792 242.66Q552.875 241.271 552.993 239.885Q553.111 238.499 553.263 237.116Q553.416 235.733 553.603 234.354Q553.79 232.976 554.011 231.602Q554.233 230.229 554.488 228.861Q554.744 227.493 555.034 226.133Q555.324 224.772 555.647 223.419Q555.971 222.066 556.329 220.721Q556.686 219.377 557.077 218.042Q557.468 216.706 557.892 215.381Q558.316 214.056 558.773 212.742Q559.23 211.428 559.72 210.126Q560.21 208.824 560.732 207.534Q561.255 206.245 561.809 204.969Q562.363 203.693 562.949 202.431Q563.535 201.169 564.153 199.922Q564.77 198.676 565.418 197.445Q566.067 196.214 566.746 194.999Q567.425 193.785 568.134 192.588Q568.843 191.391 569.581 190.212Q570.32 189.033 571.088 187.873Q571.856 186.713 572.653 185.573Q573.45 184.432 574.275 183.312Q575.1 182.191 575.952 181.092Q576.805 179.993 577.685 178.915Q578.565 177.838 579.471 176.782Q580.378 175.727 581.311 174.695Q582.243 173.662 583.202 172.654Q584.16 171.645 585.143 170.661Q586.126 169.676 587.133 168.717Q588.141 167.757 589.172 166.823Q590.19 165.875 591.231 164.952Q592.273 164.029 593.336 163.133Q594.4 162.236 595.486 161.366Q596.572 160.496 597.679 159.654Q598.786 158.811 599.913 157.996Q601.041 157.181 602.188 156.394Q603.336 155.608 604.503 154.85Q605.669 154.092 606.854 153.363Q608.04 152.634 609.242 151.935Q610.445 151.236 611.665 150.567Q612.885 149.898 614.121 149.259Q615.357 148.621 616.609 148.013Q617.86 147.405 619.126 146.829Q620.393 146.252 621.673 145.707Q622.953 145.163 624.246 144.65Q625.539 144.137 626.845 143.656Q628.151 143.176 629.468 142.728Q630.785 142.279 632.113 141.864Q633.441 141.449 634.778 141.067Q636.116 140.685 637.463 140.336Q638.81 139.987 640.165 139.672Q641.52 139.357 642.882 139.075Q644.245 138.793 645.614 138.546Q646.983 138.298 648.358 138.085Q649.733 137.871 651.112 137.692Q652.492 137.512 653.875 137.367Q655.259 137.222 656.646 137.111Q658.033 137.001 659.422 136.924Q660.811 136.848 662.202 136.807Q663.593 136.765 664.984 136.758Q666.375 136.75 667.766 136.778Q669.157 136.805 670.547 136.867Q671.98 136.919 673.411 137.006Q674.843 137.094 676.271 137.217Q677.7 137.341 679.125 137.5Q680.55 137.659 681.971 137.854Q683.392 138.049 684.807 138.28Q686.223 138.51 687.632 138.776Q689.041 139.042 690.443 139.343Q691.845 139.644 693.239 139.981Q694.633 140.317 696.019 140.688Q697.404 141.059 698.779 141.465Q700.155 141.87 701.519 142.31Q702.884 142.75 704.238 143.225Q705.591 143.699 706.932 144.207Q708.273 144.714 709.601 145.256Q710.929 145.797 712.243 146.372Q713.557 146.946 714.856 147.553Q716.155 148.161 717.439 148.8Q718.722 149.44 719.989 150.112Q721.256 150.783 722.506 151.486Q723.756 152.189 724.987 152.924Q726.219 153.658 727.432 154.423Q728.645 155.188 729.839 155.983Q731.032 156.778 732.205 157.603Q733.378 158.428 734.53 159.282Q735.682 160.136 736.813 161.018Q737.943 161.901 739.051 162.811Q740.158 163.722 741.243 164.66Q742.328 165.598 743.388 166.563Q744.449 167.528 745.485 168.519Q746.522 169.511 747.533 170.528Q748.544 171.545 749.529 172.587Q750.514 173.629 751.473 174.695Q752.419 175.749 753.34 176.825Q754.26 177.902 755.154 179.001Q756.047 180.1 756.914 181.221Q757.78 182.341 758.619 183.483Q759.458 184.624 760.268 185.786Q761.078 186.947 761.86 188.129Q762.642 189.31 763.394 190.51Q764.146 191.71 764.869 192.928Q765.592 194.146 766.285 195.382Q766.977 196.617 767.639 197.87Q768.301 199.122 768.932 200.39Q769.564 201.658 770.163 202.941Q770.763 204.224 771.331 205.522Q771.9 206.819 772.436 208.13Q772.972 209.441 773.476 210.765Q773.979 212.089 774.451 213.424Q774.922 214.76 775.36 216.107Q775.798 217.454 776.203 218.811Q776.609 220.169 776.98 221.535Q777.352 222.902 777.69 224.278Q778.028 225.653 778.332 227.037Q778.636 228.42 778.906 229.81Q779.176 231.201 779.412 232.598Q779.648 233.994 779.849 235.396Q780.051 236.798 780.218 238.205Q780.385 239.611 780.518 241.021Q780.65 242.432 780.748 243.845Q780.846 245.258 780.909 246.673Q780.972 248.088 781 249.504Q781.029 250.92 781.023 252.337Q781.016 253.753 780.975 255.169Q780.934 256.585 780.858 257.999C779.17 290.391 764.895 318.72 740.885 340.362C734.858 345.769 727.805 350.495 720.68 354.319Q719.424 354.987 718.152 355.624Q716.879 356.261 715.592 356.867Q714.304 357.473 713.002 358.046Q711.7 358.62 710.384 359.162Q709.068 359.703 707.74 360.212Q706.411 360.721 705.07 361.198Q703.729 361.674 702.377 362.117Q701.025 362.56 699.663 362.97Q698.3 363.379 696.928 363.755Q695.556 364.132 694.174 364.474Q692.793 364.816 691.404 365.124Q690.015 365.432 688.619 365.706Q687.223 365.98 685.82 366.219Q684.417 366.459 683.009 366.664Q681.601 366.869 680.189 367.039Q678.776 367.209 677.36 367.345Q675.943 367.48 674.524 367.581Q673.105 367.681 671.683 367.747Q670.262 367.812 668.839 367.843Q667.417 367.873 665.994 367.869Q664.571 367.865 663.149 367.825Q661.726 367.786 660.306 367.712Q658.885 367.637 657.466 367.528Q656.047 367.419 654.632 367.275Q653.216 367.131 651.805 366.952Q650.393 366.773 648.986 366.559Q647.58 366.346 646.178 366.098Q644.777 365.85 643.383 365.567Q641.988 365.285 640.601 364.968Q639.214 364.651 637.835 364.301Q636.456 363.95 635.086 363.566Q633.716 363.181 632.356 362.763C602.785 353.855 580.016 331.972 565.617 305.142C548.809 304.774 531.917 305.046 515.103 305.117C495.967 305.198 476.814 305.126 457.681 305.456C453.431 313.336 448.803 321.056 443.105 327.987C424.126 351.072 395.761 364.955 366.181 367.795C335.752 370.717 306.009 360.793 282.616 341.309C258.814 321.485 244.554 291.806 241.96 261.109Q241.835 259.694 241.746 258.275Q241.656 256.857 241.601 255.437Q241.546 254.018 241.527 252.597Q241.507 251.176 241.522 249.755Q241.537 248.334 241.587 246.914Q241.637 245.494 241.723 244.076Q241.808 242.657 241.928 241.241Q242.048 239.826 242.202 238.413Q242.357 237.001 242.547 235.592Q242.736 234.184 242.96 232.781Q243.184 231.378 243.443 229.981Q243.702 228.583 243.995 227.193Q244.288 225.803 244.615 224.42Q244.942 223.037 245.303 221.663Q245.664 220.288 246.058 218.923Q246.453 217.558 246.881 216.203Q247.31 214.849 247.771 213.505Q248.232 212.161 248.727 210.829Q249.221 209.496 249.748 208.177Q250.275 206.857 250.835 205.551Q251.394 204.245 251.985 202.953Q252.577 201.661 253.2 200.384Q253.823 199.106 254.477 197.845Q255.131 196.584 255.816 195.339Q256.501 194.094 257.217 192.866Q257.932 191.639 258.678 190.429Q259.423 189.219 260.198 188.028Q260.973 186.837 261.777 185.666Q262.582 184.494 263.414 183.343Q264.247 182.192 265.108 181.061Q265.969 179.931 266.857 178.822Q267.746 177.713 268.661 176.626C290.249 151.129 320.279 138.897 353.024 136.214ZM362.756 351.685Q365.199 351.523 367.63 351.241Q370.062 350.959 372.477 350.558Q374.892 350.156 377.284 349.637Q379.677 349.117 382.041 348.48Q384.404 347.844 386.734 347.092Q389.064 346.34 391.354 345.474Q393.644 344.608 395.888 343.631Q398.133 342.653 400.326 341.567Q402.52 340.48 404.658 339.287Q406.795 338.094 408.872 336.797Q410.948 335.5 412.958 334.102Q414.968 332.705 416.907 331.21Q418.846 329.716 420.709 328.128Q422.572 326.54 424.355 324.862Q426.137 323.184 427.835 321.42Q429.533 319.657 431.143 317.812Q432.752 315.967 434.268 314.045Q435.785 312.123 437.205 310.129Q438.625 308.135 439.945 306.074Q441.266 304.012 442.483 301.888Q443.701 299.764 444.812 297.583Q445.923 295.402 446.926 293.169Q447.929 290.935 448.821 288.655Q449.712 286.376 450.491 284.055Q451.269 281.734 451.933 279.377Q452.596 277.021 453.143 274.634Q453.69 272.248 454.118 269.838Q454.547 267.428 454.857 264.999Q455.166 262.571 455.356 260.13Q455.546 257.689 455.615 255.242Q455.685 252.795 455.634 250.348Q455.583 247.9 455.412 245.458Q455.241 243.016 454.95 240.585Q454.658 238.154 454.248 235.741Q453.838 233.328 453.309 230.937Q452.781 228.547 452.135 226.185Q451.49 223.824 450.729 221.497Q449.968 219.17 449.094 216.884Q448.219 214.597 447.234 212.356Q446.248 210.115 445.153 207.926Q444.058 205.736 442.857 203.603Q441.656 201.47 440.351 199.398Q439.047 197.327 437.642 195.322Q436.237 193.317 434.735 191.384Q433.233 189.45 431.638 187.593Q430.043 185.736 428.358 183.96Q426.674 182.184 424.904 180.492Q423.134 178.801 421.283 177.199Q419.432 175.596 417.505 174.087Q415.578 172.578 413.578 171.165Q411.579 169.752 409.512 168.44Q407.446 167.127 405.318 165.918Q403.189 164.708 401.004 163.605Q398.818 162.502 396.581 161.507Q394.344 160.513 392.061 159.63Q389.778 158.746 387.454 157.977Q385.13 157.207 382.771 156.552Q380.412 155.898 378.024 155.36Q375.635 154.822 373.224 154.402Q370.812 153.983 368.382 153.682Q365.953 153.382 363.511 153.201Q361.07 153.02 358.622 152.96Q356.175 152.899 353.728 152.96Q351.28 153.02 348.839 153.2Q346.409 153.38 343.991 153.678Q341.573 153.976 339.172 154.392Q336.772 154.808 334.394 155.342Q332.017 155.875 329.669 156.524Q327.32 157.173 325.006 157.936Q322.692 158.699 320.419 159.575Q318.145 160.45 315.917 161.436Q313.689 162.422 311.512 163.516Q309.334 164.609 307.213 165.808Q305.092 167.007 303.033 168.308Q300.973 169.61 298.979 171.01Q296.985 172.411 295.063 173.907Q293.14 175.404 291.293 176.993Q289.446 178.582 287.679 180.259Q285.912 181.936 284.229 183.698Q282.546 185.46 280.951 187.302Q279.356 189.144 277.854 191.062Q276.351 192.98 274.944 194.969Q273.537 196.958 272.23 199.014Q270.922 201.07 269.716 203.187Q268.511 205.304 267.41 207.478Q266.309 209.652 265.317 211.877Q264.324 214.102 263.441 216.373Q262.558 218.643 261.788 220.955Q261.017 223.266 260.361 225.613Q259.705 227.959 259.164 230.335Q258.623 232.71 258.199 235.11Q257.775 237.509 257.469 239.926Q257.164 242.343 256.976 244.772Q256.789 247.202 256.721 249.637Q256.653 252.073 256.704 254.509Q256.756 256.945 256.926 259.375Q257.096 261.805 257.386 264.225Q257.675 266.644 258.082 269.046Q258.489 271.448 259.014 273.828Q259.538 276.207 260.178 278.558Q260.818 280.909 261.573 283.225Q262.327 285.542 263.194 287.819Q264.061 290.096 265.039 292.328Q266.016 294.559 267.102 296.741Q268.187 298.922 269.378 301.047Q270.569 303.173 271.863 305.238Q273.156 307.302 274.549 309.301Q275.943 311.3 277.432 313.228Q278.921 315.157 280.503 317.01Q282.085 318.863 283.756 320.636Q285.426 322.41 287.182 324.099Q288.937 325.789 290.774 327.39Q292.61 328.992 294.522 330.501Q296.434 332.011 298.418 333.426Q300.402 334.84 302.453 336.155Q304.504 337.471 306.616 338.684Q308.729 339.898 310.899 341.007Q313.068 342.115 315.289 343.116Q317.511 344.118 319.778 345.009Q322.046 345.9 324.354 346.679Q326.663 347.458 329.007 348.124Q331.351 348.789 333.724 349.338Q336.098 349.888 338.496 350.321Q340.893 350.754 343.309 351.069Q345.725 351.384 348.154 351.58Q350.582 351.776 353.018 351.853Q355.453 351.931 357.889 351.888Q360.325 351.846 362.756 351.685ZM671.744 351.026Q674.176 350.897 676.599 350.648Q679.022 350.4 681.43 350.032Q683.837 349.665 686.224 349.18Q688.611 348.694 690.971 348.092Q693.331 347.49 695.658 346.773Q697.986 346.055 700.275 345.224Q702.565 344.394 704.811 343.451Q707.057 342.509 709.253 341.457Q711.45 340.405 713.593 339.247Q715.735 338.088 717.818 336.826Q719.901 335.563 721.919 334.2Q723.938 332.837 725.886 331.376Q727.835 329.915 729.71 328.36Q731.585 326.805 733.381 325.16Q735.177 323.515 736.89 321.784Q738.602 320.052 740.228 318.239Q741.854 316.425 743.389 314.534Q744.923 312.642 746.363 310.678Q747.803 308.714 749.144 306.681Q750.486 304.648 751.726 302.551Q752.965 300.455 754.101 298.3Q755.236 296.145 756.264 293.937Q757.292 291.729 758.21 289.474Q759.129 287.218 759.935 284.919Q760.741 282.621 761.433 280.286Q762.126 277.951 762.702 275.585Q763.279 273.218 763.739 270.826Q764.198 268.435 764.54 266.023Q764.881 263.612 765.104 261.186Q765.326 258.761 765.429 256.327Q765.532 253.894 765.515 251.458Q765.499 249.023 765.362 246.591Q765.226 244.159 764.97 241.737Q764.714 239.315 764.339 236.908Q763.965 234.502 763.472 232.117Q762.98 229.731 762.37 227.373Q761.761 225.015 761.037 222.69Q760.313 220.364 759.475 218.077Q758.637 215.79 757.688 213.547Q756.739 211.304 755.68 209.111Q754.622 206.917 753.457 204.778Q752.292 202.639 751.024 200.56Q749.755 198.481 748.386 196.467Q747.016 194.453 745.55 192.508Q744.083 190.564 742.523 188.694Q740.962 186.824 739.311 185.033Q737.661 183.242 735.924 181.534Q734.188 179.826 732.369 178.206Q730.551 176.586 728.655 175.057Q726.759 173.528 724.79 172.094Q722.822 170.66 720.785 169.325Q718.748 167.989 716.648 166.756Q714.548 165.522 712.39 164.393Q710.231 163.264 708.02 162.243Q705.809 161.221 703.551 160.31Q701.292 159.399 698.991 158.599Q696.691 157.8 694.354 157.115Q692.016 156.429 689.648 155.86Q687.28 155.29 684.887 154.838Q682.494 154.385 680.081 154.051Q677.669 153.717 675.243 153.502Q672.817 153.287 670.383 153.191Q667.949 153.095 665.514 153.119Q663.078 153.143 660.647 153.287Q658.225 153.43 655.813 153.692Q653.401 153.954 651.004 154.333Q648.608 154.712 646.233 155.209Q643.858 155.705 641.51 156.317Q639.162 156.929 636.847 157.656Q634.532 158.382 632.255 159.221Q629.979 160.06 627.746 161.009Q625.513 161.959 623.329 163.016Q621.146 164.074 619.016 165.237Q616.887 166.4 614.817 167.666Q612.748 168.932 610.742 170.298Q608.737 171.664 606.801 173.127Q604.865 174.589 603.003 176.145Q601.141 177.7 599.358 179.345Q597.574 180.99 595.873 182.72Q594.172 184.451 592.558 186.262Q590.944 188.074 589.421 189.962Q587.897 191.851 586.468 193.811Q585.039 195.772 583.707 197.8Q582.376 199.829 581.146 201.92Q579.915 204.011 578.788 206.16Q577.662 208.309 576.642 210.51Q575.622 212.712 574.711 214.96Q573.8 217.209 573 219.5Q572.201 221.791 571.514 224.118Q570.827 226.445 570.256 228.803Q569.684 231.161 569.228 233.544Q568.772 235.927 568.434 238.33Q568.096 240.732 567.875 243.148Q567.655 245.565 567.553 247.989Q567.452 250.413 567.469 252.839Q567.486 255.266 567.622 257.688Q567.758 260.11 568.012 262.523Q568.267 264.936 568.639 267.334Q569.011 269.731 569.501 272.108Q569.99 274.484 570.595 276.834Q571.2 279.184 571.919 281.501Q572.639 283.818 573.471 286.097Q574.303 288.376 575.245 290.612Q576.188 292.848 577.239 295.035Q578.29 297.222 579.447 299.354Q580.604 301.487 581.864 303.561Q583.124 305.634 584.483 307.644Q585.843 309.653 587.3 311.593Q588.757 313.534 590.307 315.4Q591.857 317.267 593.496 319.055Q595.136 320.844 596.861 322.55Q598.586 324.256 600.393 325.876Q602.2 327.495 604.083 329.024Q605.967 330.554 607.924 331.989Q609.88 333.424 611.904 334.761Q613.929 336.099 616.016 337.335Q618.104 338.572 620.249 339.705Q622.395 340.838 624.593 341.865Q626.792 342.891 629.038 343.809Q631.284 344.727 633.572 345.533Q635.86 346.34 638.185 347.033Q640.51 347.727 642.867 348.306Q645.223 348.885 647.605 349.347Q649.986 349.81 652.388 350.156Q654.79 350.501 657.205 350.729Q659.621 350.956 662.045 351.065Q664.469 351.174 666.895 351.165Q669.321 351.155 671.744 351.026Z"/>
	<path fill="#427AA1" d="M353.878 166.286Q354.536 166.222 355.196 166.191Q355.857 166.16 356.518 166.162Q357.179 166.163 357.839 166.197Q358.499 166.231 359.157 166.298Q359.814 166.364 360.468 166.463Q361.122 166.562 361.769 166.692Q362.417 166.823 363.058 166.986Q363.699 167.148 364.331 167.342Q364.963 167.536 365.584 167.761Q366.206 167.986 366.816 168.241Q367.426 168.496 368.022 168.781Q368.619 169.066 369.201 169.38Q369.782 169.693 370.348 170.035Q370.914 170.378 371.462 170.747Q372.01 171.117 372.539 171.513Q373.068 171.909 373.577 172.331Q374.086 172.752 374.574 173.199Q375.062 173.645 375.527 174.114Q375.992 174.584 376.433 175.076Q376.875 175.568 377.292 176.081Q377.708 176.594 378.099 177.128Q378.49 177.661 378.854 178.212Q379.219 178.764 379.555 179.333Q379.892 179.902 380.2 180.487Q380.508 181.071 380.787 181.671Q381.066 182.27 381.315 182.882Q381.565 183.494 381.783 184.118Q382.002 184.742 382.19 185.376Q382.378 186.01 382.534 186.652Q382.69 187.294 382.815 187.943Q382.939 188.593 383.032 189.247Q383.124 189.902 383.184 190.56Q383.244 191.218 383.272 191.879Q383.299 192.539 383.294 193.2Q383.289 193.861 383.252 194.521Q383.214 195.181 383.144 195.839Q383.074 196.496 382.972 197.149Q382.87 197.802 382.735 198.45Q382.601 199.097 382.435 199.737Q382.269 200.377 382.072 201.008Q381.874 201.638 381.646 202.259Q381.418 202.879 381.16 203.488Q380.901 204.096 380.613 204.691Q380.325 205.286 380.008 205.866Q379.691 206.447 379.346 207.01Q379.001 207.574 378.628 208.12Q378.256 208.666 377.857 209.193Q377.458 209.721 377.034 210.227Q376.609 210.734 376.16 211.219Q375.711 211.705 375.239 212.167Q374.767 212.63 374.273 213.069Q373.778 213.508 373.263 213.922Q372.747 214.336 372.212 214.724Q371.677 215.112 371.123 215.473Q370.57 215.834 369.999 216.168Q369.428 216.501 368.842 216.806Q368.255 217.111 367.655 217.387Q367.054 217.663 366.44 217.909Q365.827 218.155 365.202 218.37Q364.577 218.585 363.942 218.77Q363.307 218.954 362.664 219.107Q362.021 219.26 361.371 219.381Q360.721 219.502 360.066 219.591Q359.411 219.68 358.752 219.736Q358.098 219.792 357.442 219.816Q356.786 219.84 356.129 219.832Q355.473 219.824 354.817 219.784Q354.162 219.744 353.51 219.672Q352.857 219.6 352.209 219.496Q351.56 219.392 350.918 219.256Q350.276 219.12 349.641 218.954Q349.006 218.787 348.38 218.589Q347.753 218.392 347.138 218.164Q346.522 217.936 345.918 217.678Q345.315 217.42 344.724 217.133Q344.134 216.846 343.558 216.53Q342.982 216.214 342.423 215.871Q341.863 215.528 341.321 215.157Q340.779 214.787 340.255 214.391Q339.732 213.994 339.229 213.573Q338.725 213.151 338.243 212.706Q337.761 212.26 337.301 211.791Q336.842 211.323 336.405 210.832Q335.969 210.341 335.557 209.83Q335.145 209.319 334.759 208.788Q334.373 208.257 334.013 207.708Q333.653 207.159 333.32 206.593Q332.988 206.027 332.683 205.445Q332.379 204.863 332.103 204.267Q331.827 203.672 331.581 203.063Q331.335 202.454 331.119 201.834Q330.902 201.215 330.717 200.585Q330.531 199.955 330.377 199.317Q330.222 198.679 330.099 198.034Q329.976 197.389 329.884 196.739Q329.793 196.089 329.733 195.435Q329.673 194.781 329.646 194.125Q329.618 193.469 329.623 192.813Q329.627 192.156 329.664 191.501Q329.701 190.845 329.769 190.192Q329.838 189.539 329.938 188.89Q330.039 188.242 330.171 187.599Q330.303 186.955 330.466 186.32Q330.63 185.684 330.824 185.056Q331.018 184.429 331.243 183.812Q331.468 183.196 331.722 182.59Q331.977 181.985 332.261 181.393Q332.545 180.801 332.857 180.224Q333.17 179.647 333.51 179.085Q333.851 178.524 334.218 177.98Q334.585 177.435 334.979 176.91Q335.373 176.384 335.791 175.879Q336.21 175.373 336.653 174.889Q337.096 174.404 337.563 173.942Q338.029 173.48 338.517 173.041Q339.005 172.602 339.514 172.187Q340.023 171.773 340.552 171.384Q341.081 170.994 341.628 170.632Q342.175 170.269 342.74 169.933Q343.304 169.598 343.884 169.29Q344.464 168.982 345.058 168.703Q345.653 168.424 346.26 168.175Q346.867 167.925 347.486 167.706Q348.105 167.486 348.734 167.298Q349.362 167.109 350 166.951Q350.637 166.792 351.281 166.666Q351.925 166.539 352.575 166.444Q353.224 166.349 353.878 166.286Z"/>
	<path fill="#427AA1" d="M410.178 207.629Q410.836 207.575 411.496 207.553Q412.156 207.531 412.816 207.541Q413.476 207.552 414.135 207.595Q414.794 207.638 415.45 207.714Q416.106 207.789 416.757 207.897Q417.409 208.005 418.054 208.144Q418.699 208.284 419.337 208.455Q419.974 208.627 420.603 208.829Q421.231 209.032 421.849 209.265Q422.467 209.498 423.072 209.762Q423.677 210.025 424.269 210.318Q424.861 210.611 425.438 210.933Q426.014 211.254 426.574 211.604Q427.134 211.954 427.676 212.331Q428.218 212.708 428.741 213.111Q429.264 213.514 429.766 213.942Q430.269 214.371 430.75 214.824Q431.23 215.276 431.688 215.752Q432.146 216.228 432.58 216.726Q433.013 217.223 433.422 217.742Q433.831 218.26 434.214 218.798Q434.596 219.336 434.952 219.893Q435.308 220.449 435.635 221.022Q435.963 221.595 436.263 222.184Q436.562 222.772 436.832 223.375Q437.102 223.977 437.341 224.592Q437.581 225.208 437.791 225.834Q438 226.46 438.178 227.096Q438.356 227.732 438.503 228.375Q438.649 229.019 438.764 229.669Q438.879 230.32 438.961 230.975Q439.044 231.63 439.094 232.288Q439.144 232.946 439.162 233.606Q439.18 234.266 439.165 234.926Q439.15 235.586 439.102 236.245Q439.055 236.904 438.975 237.559Q438.896 238.214 438.784 238.865Q438.672 239.516 438.528 240.16Q438.384 240.804 438.209 241.441Q438.033 242.077 437.826 242.704Q437.62 243.332 437.383 243.948Q437.146 244.564 436.878 245.168Q436.611 245.771 436.314 246.361Q436.017 246.951 435.692 247.525Q435.367 248.1 435.013 248.658Q434.66 249.215 434.28 249.755Q433.899 250.295 433.493 250.815Q433.086 251.335 432.655 251.835Q432.223 252.334 431.767 252.812Q431.312 253.29 430.833 253.744Q430.354 254.199 429.854 254.63Q429.353 255.06 428.832 255.466Q428.311 255.871 427.77 256.25Q427.23 256.629 426.671 256.982Q426.113 257.334 425.538 257.658Q424.963 257.982 424.372 258.277Q423.782 258.573 423.177 258.839Q422.573 259.105 421.956 259.341Q421.34 259.577 420.712 259.782Q420.085 259.987 419.448 260.161Q418.811 260.335 418.166 260.478Q417.522 260.62 416.871 260.731Q416.22 260.841 415.564 260.92Q414.909 260.998 414.25 261.044Q413.597 261.09 412.942 261.103Q412.287 261.117 411.633 261.098Q410.978 261.08 410.325 261.03Q409.672 260.979 409.023 260.897Q408.373 260.815 407.728 260.701Q407.083 260.587 406.445 260.442Q405.806 260.297 405.176 260.12Q404.545 259.944 403.924 259.737Q403.302 259.53 402.692 259.293Q402.081 259.056 401.483 258.79Q400.885 258.523 400.301 258.228Q399.716 257.932 399.147 257.609Q398.578 257.285 398.025 256.934Q397.472 256.583 396.937 256.205Q396.402 255.827 395.887 255.424Q395.371 255.021 394.875 254.592Q394.38 254.164 393.906 253.713Q393.432 253.261 392.98 252.786Q392.529 252.312 392.101 251.816Q391.674 251.32 391.271 250.804Q390.868 250.288 390.491 249.752Q390.113 249.217 389.763 248.664Q389.412 248.111 389.089 247.541Q388.766 246.972 388.471 246.387Q388.176 245.802 387.91 245.204Q387.644 244.606 387.408 243.995Q387.171 243.384 386.965 242.763Q386.758 242.141 386.583 241.51Q386.407 240.88 386.262 240.241Q386.118 239.602 386.004 238.957Q385.891 238.312 385.809 237.663Q385.728 237.013 385.678 236.36Q385.628 235.707 385.61 235.052Q385.593 234.398 385.607 233.743Q385.621 233.088 385.667 232.435Q385.713 231.782 385.791 231.132Q385.869 230.482 385.979 229.836Q386.089 229.19 386.23 228.551Q386.371 227.911 386.543 227.28Q386.715 226.648 386.918 226.025Q387.121 225.402 387.354 224.79Q387.587 224.178 387.85 223.579Q388.113 222.979 388.404 222.392Q388.696 221.806 389.016 221.235Q389.336 220.663 389.684 220.108Q390.031 219.553 390.405 219.016Q390.78 218.479 391.18 217.96Q391.58 217.442 392.005 216.943Q392.43 216.445 392.878 215.968Q393.327 215.491 393.799 215.037Q394.27 214.582 394.763 214.152Q395.256 213.721 395.77 213.314Q396.284 212.908 396.817 212.528Q397.349 212.147 397.9 211.793Q398.451 211.439 399.019 211.112Q399.586 210.785 400.169 210.486Q400.752 210.188 401.348 209.918Q401.945 209.648 402.554 209.408Q403.163 209.167 403.783 208.957Q404.404 208.747 405.033 208.567Q405.663 208.387 406.301 208.238Q406.938 208.089 407.583 207.972Q408.227 207.855 408.876 207.769Q409.525 207.683 410.178 207.629Z"/>
	<path fill="#427AA1" d="M296.477 207.258Q297.127 207.178 297.781 207.13Q298.434 207.082 299.089 207.067Q299.745 207.051 300.4 207.068Q301.055 207.084 301.708 207.133Q302.362 207.182 303.012 207.263Q303.662 207.344 304.307 207.457Q304.953 207.569 305.592 207.714Q306.231 207.858 306.862 208.034Q307.494 208.21 308.116 208.416Q308.737 208.623 309.348 208.86Q309.959 209.096 310.558 209.363Q311.156 209.63 311.741 209.925Q312.326 210.221 312.895 210.545Q313.465 210.87 314.018 211.221Q314.57 211.573 315.105 211.952Q315.64 212.33 316.156 212.735Q316.671 213.139 317.166 213.568Q317.661 213.998 318.135 214.451Q318.608 214.904 319.058 215.38Q319.509 215.856 319.935 216.353Q320.362 216.851 320.763 217.368Q321.165 217.886 321.54 218.423Q321.916 218.96 322.265 219.515Q322.613 220.07 322.934 220.641Q323.255 221.212 323.548 221.799Q323.84 222.385 324.103 222.985Q324.367 223.585 324.6 224.197Q324.834 224.81 325.037 225.433Q325.24 226.056 325.412 226.688Q325.584 227.32 325.725 227.96Q325.865 228.6 325.975 229.246Q326.084 229.892 326.161 230.543Q326.238 231.194 326.283 231.847Q326.329 232.501 326.341 233.156Q326.354 233.811 326.335 234.466Q326.316 235.121 326.264 235.775Q326.213 236.428 326.129 237.078Q326.046 237.728 325.93 238.373Q325.815 239.018 325.668 239.657Q325.521 240.295 325.342 240.926Q325.164 241.556 324.955 242.177Q324.746 242.798 324.506 243.408Q324.267 244.018 323.998 244.616Q323.729 245.213 323.43 245.797Q323.132 246.38 322.806 246.948Q322.479 247.516 322.125 248.068Q321.771 248.619 321.39 249.152Q321.009 249.686 320.603 250.2Q320.196 250.714 319.765 251.207Q319.333 251.7 318.878 252.172Q318.423 252.643 317.945 253.091Q317.468 253.54 316.968 253.964Q316.469 254.389 315.95 254.788Q315.43 255.188 314.891 255.561Q314.353 255.934 313.797 256.281Q313.24 256.627 312.668 256.946Q312.095 257.264 311.508 257.554Q310.92 257.844 310.319 258.105Q309.718 258.366 309.104 258.597Q308.491 258.827 307.867 259.028Q307.243 259.228 306.61 259.398Q305.977 259.567 305.337 259.705Q304.696 259.844 304.05 259.95Q303.403 260.056 302.752 260.131Q302.104 260.205 301.454 260.247Q300.804 260.29 300.152 260.3Q299.5 260.311 298.849 260.289Q298.197 260.268 297.548 260.214Q296.898 260.161 296.252 260.076Q295.606 259.991 294.964 259.874Q294.323 259.758 293.688 259.61Q293.053 259.462 292.427 259.284Q291.8 259.105 291.183 258.896Q290.565 258.687 289.959 258.447Q289.352 258.208 288.759 257.94Q288.165 257.671 287.585 257.374Q287.005 257.077 286.44 256.752Q285.875 256.426 285.327 256.074Q284.778 255.721 284.248 255.342Q283.718 254.963 283.207 254.559Q282.696 254.154 282.205 253.726Q281.714 253.297 281.245 252.844Q280.776 252.392 280.329 251.917Q279.883 251.442 279.46 250.946Q279.038 250.45 278.64 249.933Q278.242 249.417 277.87 248.882Q277.497 248.347 277.152 247.794Q276.806 247.242 276.488 246.673Q276.17 246.104 275.88 245.52Q275.591 244.936 275.33 244.339Q275.069 243.742 274.837 243.132Q274.606 242.523 274.405 241.903Q274.203 241.283 274.033 240.654Q273.862 240.025 273.722 239.388Q273.583 238.752 273.474 238.109Q273.366 237.466 273.289 236.819Q273.212 236.172 273.167 235.522Q273.122 234.871 273.109 234.22Q273.096 233.568 273.114 232.916Q273.133 232.265 273.184 231.615Q273.234 230.965 273.317 230.319Q273.399 229.672 273.513 229.03Q273.627 228.389 273.772 227.753Q273.917 227.118 274.093 226.49Q274.269 225.863 274.476 225.244Q274.682 224.626 274.919 224.019Q275.155 223.412 275.421 222.816Q275.687 222.221 275.982 221.64Q276.277 221.059 276.6 220.493Q276.923 219.926 277.273 219.377Q277.623 218.827 278 218.295Q278.377 217.763 278.779 217.25Q279.181 216.737 279.608 216.245Q280.035 215.752 280.485 215.281Q280.936 214.81 281.409 214.362Q281.882 213.913 282.376 213.489Q282.871 213.064 283.385 212.664Q283.9 212.264 284.433 211.889Q284.967 211.515 285.518 211.167Q286.069 210.819 286.637 210.499Q287.204 210.178 287.787 209.886Q288.37 209.594 288.966 209.33Q289.562 209.067 290.17 208.833Q290.779 208.599 291.398 208.395Q292.017 208.191 292.645 208.018Q293.273 207.845 293.91 207.702Q294.546 207.56 295.188 207.449Q295.83 207.338 296.477 207.258Z"/>
	<path fill="#427AA1" d="M316.866 274.237Q317.511 274.136 318.161 274.066Q318.81 273.997 319.463 273.959Q320.115 273.922 320.768 273.916Q321.421 273.911 322.074 273.938Q322.727 273.965 323.377 274.024Q324.028 274.083 324.675 274.174Q325.322 274.265 325.963 274.388Q326.605 274.511 327.24 274.665Q327.874 274.819 328.501 275.005Q329.127 275.19 329.744 275.406Q330.36 275.622 330.965 275.868Q331.57 276.114 332.163 276.39Q332.755 276.666 333.333 276.97Q333.911 277.275 334.473 277.607Q335.036 277.94 335.581 278.3Q336.126 278.659 336.653 279.046Q337.18 279.432 337.687 279.844Q338.194 280.256 338.68 280.692Q339.166 281.128 339.63 281.588Q340.095 282.047 340.535 282.529Q340.976 283.011 341.393 283.514Q341.81 284.018 342.201 284.541Q342.592 285.064 342.958 285.605Q343.323 286.147 343.661 286.706Q343.999 287.265 344.309 287.84Q344.619 288.415 344.9 289.005Q345.181 289.594 345.433 290.197Q345.685 290.8 345.907 291.414Q346.129 292.029 346.321 292.653Q346.512 293.278 346.672 293.911Q346.833 294.544 346.962 295.185Q347.091 295.825 347.188 296.471Q347.285 297.117 347.351 297.767Q347.416 298.417 347.449 299.069Q347.483 299.722 347.484 300.375Q347.485 301.028 347.454 301.681Q347.422 302.333 347.359 302.984Q347.296 303.634 347.201 304.28Q347.106 304.927 346.979 305.567Q346.852 306.208 346.693 306.842Q346.535 307.476 346.346 308.101Q346.156 308.726 345.936 309.341Q345.716 309.956 345.466 310.56Q345.216 311.164 344.937 311.754Q344.658 312.345 344.349 312.921Q344.041 313.497 343.705 314.057Q343.369 314.617 343.005 315.16Q342.642 315.703 342.252 316.227Q341.863 316.751 341.448 317.256Q341.033 317.76 340.593 318.244Q340.154 318.727 339.691 319.188Q339.229 319.649 338.744 320.087Q338.259 320.525 337.753 320.939Q337.247 321.352 336.722 321.74Q336.196 322.128 335.652 322.49Q335.108 322.851 334.547 323.186Q333.986 323.52 333.409 323.826Q332.832 324.133 332.24 324.41Q331.649 324.688 331.044 324.936Q330.44 325.184 329.824 325.402Q329.208 325.62 328.583 325.807Q327.957 325.995 327.322 326.151Q326.688 326.307 326.047 326.432Q325.406 326.557 324.759 326.65Q324.118 326.742 323.473 326.803Q322.828 326.864 322.18 326.894Q321.533 326.923 320.885 326.921Q320.237 326.918 319.59 326.884Q318.943 326.85 318.298 326.785Q317.654 326.719 317.013 326.622Q316.373 326.525 315.737 326.397Q315.102 326.269 314.474 326.109Q313.846 325.95 313.227 325.761Q312.607 325.571 311.997 325.352Q311.388 325.132 310.79 324.883Q310.192 324.634 309.606 324.356Q309.021 324.078 308.45 323.771Q307.879 323.465 307.324 323.131Q306.769 322.797 306.23 322.436Q305.692 322.076 305.172 321.689Q304.652 321.303 304.152 320.891Q303.651 320.48 303.171 320.045Q302.691 319.609 302.233 319.151Q301.775 318.692 301.34 318.212Q300.905 317.732 300.494 317.231Q300.083 316.73 299.697 316.21Q299.311 315.69 298.951 315.151Q298.591 314.613 298.257 314.057Q297.924 313.501 297.618 312.93Q297.312 312.359 297.034 311.774Q296.757 311.188 296.508 310.59Q296.259 309.992 296.04 309.382Q295.821 308.772 295.632 308.152Q295.443 307.533 295.284 306.904Q295.126 306.276 294.998 305.641Q294.87 305.006 294.774 304.365Q294.677 303.724 294.612 303.08Q294.547 302.435 294.514 301.788Q294.48 301.141 294.479 300.493Q294.477 299.845 294.507 299.198Q294.536 298.55 294.598 297.905Q294.659 297.26 294.752 296.619Q294.845 295.978 294.969 295.342Q295.093 294.706 295.248 294.077Q295.403 293.448 295.589 292.827Q295.774 292.206 295.99 291.595Q296.206 290.984 296.451 290.384Q296.696 289.785 296.971 289.198Q297.245 288.611 297.548 288.038Q297.85 287.465 298.181 286.908Q298.511 286.35 298.868 285.809Q299.225 285.269 299.609 284.746Q299.992 284.224 300.4 283.721Q300.808 283.217 301.24 282.735Q301.673 282.252 302.128 281.791Q302.584 281.33 303.061 280.892Q303.538 280.454 304.037 280.04Q304.535 279.626 305.053 279.236Q305.57 278.847 306.107 278.483Q306.643 278.12 307.196 277.782Q307.75 277.445 308.319 277.136Q308.888 276.826 309.472 276.545Q310.056 276.264 310.652 276.011Q311.249 275.759 311.857 275.536Q312.466 275.312 313.084 275.119Q313.703 274.926 314.33 274.764Q314.957 274.601 315.591 274.469Q316.226 274.338 316.866 274.237Z"/>
	<path fill="#427AA1" d="M386.943 274.244Q387.586 274.17 388.232 274.127Q388.878 274.084 389.526 274.073Q390.173 274.062 390.82 274.083Q391.467 274.103 392.113 274.155Q392.758 274.208 393.4 274.291Q394.042 274.375 394.68 274.49Q395.317 274.605 395.948 274.751Q396.578 274.897 397.201 275.074Q397.824 275.251 398.438 275.458Q399.051 275.665 399.654 275.902Q400.256 276.138 400.847 276.405Q401.437 276.671 402.014 276.965Q402.59 277.26 403.152 277.582Q403.713 277.905 404.258 278.254Q404.803 278.604 405.331 278.979Q405.858 279.355 406.366 279.756Q406.874 280.157 407.362 280.583Q407.851 281.008 408.317 281.457Q408.784 281.906 409.228 282.377Q409.672 282.848 410.092 283.341Q410.513 283.833 410.909 284.345Q411.305 284.858 411.675 285.389Q412.046 285.92 412.39 286.468Q412.734 287.017 413.05 287.582Q413.367 288.147 413.656 288.726Q413.944 289.306 414.204 289.899Q414.464 290.492 414.695 291.097Q414.926 291.702 415.127 292.317Q415.327 292.933 415.498 293.557Q415.668 294.182 415.808 294.814Q415.948 295.447 416.056 296.085Q416.165 296.723 416.242 297.366Q416.319 298.009 416.365 298.655Q416.411 299.301 416.425 299.948Q416.439 300.595 416.421 301.243Q416.403 301.89 416.354 302.535Q416.304 303.181 416.224 303.824Q416.143 304.466 416.03 305.104Q415.918 305.741 415.775 306.373Q415.632 307.004 415.458 307.628Q415.284 308.252 415.079 308.866Q414.875 309.481 414.641 310.084Q414.407 310.688 414.143 311.279Q413.88 311.871 413.588 312.449Q413.296 313.027 412.976 313.59Q412.656 314.153 412.309 314.699Q411.962 315.246 411.589 315.775Q411.215 316.304 410.816 316.814Q410.417 317.324 409.994 317.814Q409.571 318.304 409.124 318.772Q408.677 319.241 408.208 319.687Q407.739 320.133 407.248 320.556Q406.758 320.979 406.247 321.377Q405.737 321.775 405.207 322.148Q404.678 322.521 404.131 322.867Q403.584 323.214 403.02 323.533Q402.457 323.852 401.879 324.143Q401.3 324.435 400.708 324.697Q400.117 324.96 399.513 325.193Q398.909 325.427 398.294 325.63Q397.679 325.834 397.055 326.007Q396.432 326.18 395.8 326.323Q395.168 326.465 394.53 326.577Q393.893 326.688 393.25 326.768Q392.604 326.849 391.954 326.897Q391.305 326.946 390.654 326.962Q390.003 326.979 389.352 326.964Q388.701 326.948 388.052 326.901Q387.402 326.853 386.756 326.774Q386.11 326.694 385.468 326.583Q384.826 326.472 384.191 326.33Q383.556 326.187 382.928 326.014Q382.3 325.84 381.682 325.636Q381.064 325.432 380.456 325.197Q379.849 324.963 379.254 324.699Q378.658 324.435 378.077 324.142Q377.495 323.849 376.929 323.527Q376.363 323.206 375.813 322.857Q375.263 322.509 374.731 322.133Q374.199 321.758 373.686 321.357Q373.173 320.956 372.68 320.53Q372.187 320.104 371.716 319.654Q371.245 319.205 370.797 318.732Q370.349 318.26 369.924 317.766Q369.5 317.273 369.1 316.759Q368.7 316.245 368.326 315.712Q367.952 315.179 367.605 314.628Q367.257 314.077 366.938 313.51Q366.618 312.942 366.326 312.36Q366.035 311.778 365.772 311.182Q365.51 310.586 365.277 309.978Q365.044 309.37 364.842 308.751Q364.639 308.132 364.467 307.504Q364.295 306.876 364.154 306.24Q364.013 305.604 363.904 304.962Q363.795 304.321 363.717 303.674Q363.639 303.027 363.594 302.378Q363.548 301.728 363.534 301.077Q363.521 300.426 363.539 299.775Q363.557 299.124 363.608 298.475Q363.658 297.826 363.74 297.18Q363.822 296.534 363.936 295.893Q364.05 295.252 364.196 294.617Q364.341 293.982 364.517 293.355Q364.694 292.728 364.901 292.111Q365.108 291.494 365.345 290.887Q365.582 290.281 365.849 289.687Q366.115 289.093 366.411 288.512Q366.707 287.932 367.03 287.367Q367.354 286.802 367.705 286.254Q368.057 285.706 368.434 285.175Q368.812 284.645 369.216 284.134Q369.619 283.622 370.047 283.132Q370.475 282.641 370.927 282.172Q371.379 281.703 371.853 281.257Q372.327 280.81 372.823 280.388Q373.318 279.966 373.834 279.568Q374.35 279.171 374.885 278.799Q375.419 278.427 375.972 278.083Q376.524 277.738 377.093 277.421Q377.662 277.103 378.245 276.814Q378.829 276.526 379.426 276.266Q380.023 276.006 380.632 275.776Q381.241 275.546 381.861 275.346Q382.481 275.146 383.11 274.977Q383.738 274.808 384.375 274.67Q385.011 274.532 385.654 274.425Q386.296 274.319 386.943 274.244Z"/>
	<path fill="#427AA1" d="M352.952 236.782Q353.348 236.713 353.747 236.664Q354.146 236.615 354.547 236.585Q354.948 236.555 355.35 236.545Q355.751 236.535 356.153 236.544Q356.555 236.554 356.956 236.583Q357.357 236.611 357.756 236.66Q358.155 236.708 358.552 236.776Q358.948 236.844 359.34 236.931Q359.733 237.018 360.12 237.124Q360.508 237.23 360.89 237.355Q361.272 237.48 361.648 237.623Q362.024 237.766 362.392 237.927Q362.76 238.089 363.12 238.268Q363.48 238.447 363.831 238.643Q364.181 238.84 364.522 239.053Q364.863 239.266 365.193 239.496Q365.523 239.726 365.841 239.971Q366.159 240.216 366.466 240.477Q366.772 240.738 367.065 241.013Q367.358 241.288 367.637 241.577Q367.916 241.866 368.181 242.169Q368.446 242.471 368.696 242.786Q368.945 243.101 369.18 243.428Q369.414 243.755 369.632 244.093Q369.85 244.43 370.051 244.778Q370.252 245.126 370.436 245.484Q370.62 245.841 370.787 246.207Q370.953 246.573 371.102 246.946Q371.25 247.32 371.38 247.7Q371.51 248.081 371.621 248.467Q371.733 248.853 371.825 249.245Q371.918 249.636 371.991 250.031Q372.064 250.426 372.118 250.825Q372.172 251.223 372.207 251.623Q372.241 252.024 372.256 252.426Q372.271 252.827 372.266 253.229Q372.262 253.631 372.237 254.032Q372.213 254.434 372.17 254.833Q372.126 255.233 372.063 255.63Q372 256.027 371.917 256.42Q371.835 256.814 371.733 257.203Q371.632 257.592 371.512 257.975Q371.391 258.359 371.253 258.736Q371.114 259.113 370.957 259.483Q370.8 259.853 370.625 260.215Q370.45 260.577 370.258 260.93Q370.066 261.283 369.856 261.626Q369.647 261.97 369.421 262.302Q369.196 262.635 368.954 262.956Q368.712 263.277 368.455 263.586Q368.198 263.895 367.927 264.192Q367.655 264.488 367.369 264.771Q367.083 265.053 366.784 265.322Q366.485 265.59 366.173 265.843Q365.861 266.097 365.537 266.335Q365.213 266.573 364.878 266.795Q364.543 267.017 364.197 267.222Q363.852 267.427 363.496 267.616Q363.141 267.804 362.777 267.975Q362.413 268.145 362.042 268.298Q361.67 268.451 361.291 268.586Q360.912 268.72 360.527 268.836Q360.142 268.952 359.752 269.049Q359.362 269.146 358.968 269.224Q358.434 269.329 357.895 269.4Q357.355 269.47 356.812 269.504Q356.269 269.538 355.725 269.537Q355.18 269.535 354.638 269.498Q354.095 269.461 353.555 269.388Q353.016 269.315 352.483 269.206Q351.95 269.098 351.425 268.954Q350.9 268.811 350.385 268.634Q349.871 268.456 349.37 268.245Q348.868 268.034 348.381 267.79Q347.895 267.546 347.426 267.271Q346.956 266.996 346.506 266.69Q346.056 266.385 345.626 266.05Q345.197 265.716 344.791 265.354Q344.385 264.991 344.003 264.603Q343.622 264.215 343.267 263.803Q342.912 263.391 342.585 262.956Q342.258 262.521 341.96 262.065Q341.662 261.61 341.395 261.136Q341.128 260.662 340.893 260.171Q340.657 259.681 340.455 259.175Q340.252 258.67 340.084 258.153Q339.915 257.636 339.781 257.108Q339.646 256.581 339.547 256.046Q339.448 255.511 339.384 254.971Q339.32 254.43 339.292 253.887Q339.264 253.343 339.272 252.799Q339.28 252.255 339.324 251.713Q339.368 251.17 339.447 250.632Q339.526 250.094 339.641 249.562Q339.755 249.03 339.905 248.506Q340.054 247.983 340.238 247.471Q340.422 246.959 340.639 246.46Q340.856 245.961 341.105 245.477Q341.354 244.993 341.635 244.527Q341.916 244.061 342.227 243.615Q342.537 243.168 342.877 242.743Q343.216 242.317 343.583 241.916Q343.95 241.514 344.343 241.137Q344.735 240.76 345.152 240.41Q345.568 240.06 346.007 239.738Q346.446 239.416 346.904 239.123Q347.363 238.831 347.841 238.569Q348.318 238.308 348.811 238.079Q349.305 237.849 349.812 237.653Q350.32 237.456 350.839 237.294Q351.358 237.131 351.887 237.003Q352.416 236.875 352.952 236.782ZM349.209 260.126Q349.559 260.46 349.94 260.758Q350.321 261.056 350.73 261.314Q351.139 261.573 351.572 261.789Q352.004 262.005 352.456 262.177Q352.909 262.349 353.376 262.475Q353.843 262.601 354.32 262.679Q354.797 262.758 355.28 262.789Q355.763 262.82 356.246 262.802Q356.479 262.794 356.711 262.774Q356.944 262.754 357.175 262.723Q357.406 262.692 357.636 262.65Q357.865 262.608 358.092 262.555Q358.319 262.502 358.544 262.438Q358.768 262.375 358.989 262.3Q359.21 262.225 359.427 262.14Q359.644 262.055 359.857 261.959Q360.07 261.864 360.278 261.758Q360.485 261.652 360.688 261.537Q360.891 261.421 361.087 261.296Q361.284 261.171 361.475 261.036Q361.665 260.902 361.849 260.758Q362.033 260.614 362.209 260.462Q362.386 260.31 362.555 260.149Q362.724 259.988 362.885 259.82Q363.046 259.651 363.199 259.475Q363.352 259.299 363.496 259.116Q363.64 258.932 363.776 258.742Q363.911 258.552 364.037 258.356Q364.162 258.159 364.279 257.957Q364.395 257.755 364.501 257.547Q364.608 257.34 364.704 257.127Q364.8 256.915 364.886 256.698Q364.972 256.481 365.047 256.261Q365.122 256.04 365.187 255.816Q365.252 255.592 365.305 255.365Q365.359 255.138 365.402 254.908Q365.445 254.679 365.476 254.448Q365.508 254.217 365.528 253.985Q365.549 253.752 365.558 253.519Q365.567 253.286 365.565 253.053Q365.563 252.82 365.55 252.587Q365.536 252.354 365.512 252.122Q365.487 251.89 365.452 251.66Q365.416 251.429 365.369 251.201Q365.323 250.972 365.265 250.746Q365.207 250.52 365.139 250.297Q365.07 250.074 364.991 249.855Q364.912 249.635 364.822 249.42Q364.733 249.205 364.633 248.994Q364.533 248.783 364.423 248.577Q364.313 248.372 364.193 248.172Q364.073 247.971 363.944 247.777Q363.815 247.583 363.676 247.395Q363.538 247.208 363.39 247.027Q363.243 246.846 363.087 246.673Q362.931 246.499 362.767 246.333Q362.603 246.168 362.431 246.01Q362.259 245.852 362.08 245.703Q361.901 245.554 361.714 245.414Q361.528 245.273 361.335 245.142Q361.142 245.011 360.943 244.889Q360.744 244.767 360.54 244.655Q360.335 244.543 360.125 244.441Q359.916 244.339 359.701 244.247Q359.487 244.155 359.268 244.074Q359.05 243.993 358.827 243.922Q358.605 243.851 358.38 243.791Q358.154 243.731 357.926 243.682Q357.698 243.633 357.468 243.595Q357.238 243.557 357.006 243.53Q356.775 243.504 356.542 243.488Q356.309 243.472 356.076 243.468Q355.714 243.461 355.352 243.482Q354.99 243.502 354.631 243.549Q354.271 243.597 353.917 243.671Q353.562 243.745 353.214 243.845Q352.866 243.946 352.526 244.072Q352.186 244.198 351.857 244.349Q351.528 244.501 351.21 244.676Q350.893 244.852 350.59 245.05Q350.287 245.249 350 245.47Q349.713 245.691 349.443 245.933Q349.173 246.174 348.922 246.436Q348.67 246.697 348.44 246.976Q348.209 247.255 347.999 247.551Q347.79 247.847 347.603 248.158Q347.417 248.468 347.254 248.792Q347.091 249.116 346.953 249.451Q346.815 249.786 346.702 250.131Q346.59 250.475 346.503 250.827Q346.416 251.179 346.356 251.536Q346.296 251.894 346.263 252.255Q346.23 252.616 346.224 252.978Q346.218 253.34 346.239 253.702Q346.261 254.064 346.309 254.423Q346.357 254.782 346.432 255.137Q346.507 255.492 346.608 255.84Q346.709 256.188 346.836 256.527Q346.964 256.867 347.116 257.195Q347.268 257.524 347.444 257.841Q347.62 258.158 347.82 258.46Q348.019 258.763 348.241 259.05Q348.462 259.337 348.705 259.606Q348.947 259.875 349.209 260.126Z"/>
	<path fill="#427AA1" d="M662.387 166.301Q663.04 166.207 663.698 166.145Q664.355 166.083 665.014 166.053Q665.674 166.023 666.334 166.026Q666.994 166.028 667.653 166.063Q668.313 166.098 668.969 166.165Q669.626 166.232 670.279 166.331Q670.931 166.431 671.578 166.562Q672.226 166.693 672.865 166.855Q673.505 167.018 674.136 167.211Q674.767 167.405 675.388 167.629Q676.009 167.854 676.618 168.108Q677.227 168.363 677.823 168.647Q678.419 168.931 679.001 169.244Q679.582 169.556 680.147 169.897Q680.712 170.238 681.26 170.606Q681.808 170.975 682.338 171.369Q682.867 171.764 683.376 172.184Q683.885 172.604 684.374 173.048Q684.862 173.493 685.327 173.961Q685.793 174.428 686.236 174.919Q686.678 175.409 687.096 175.92Q687.513 176.431 687.906 176.962Q688.298 177.493 688.664 178.043Q689.029 178.592 689.368 179.159Q689.706 179.726 690.016 180.308Q690.327 180.891 690.608 181.488Q690.89 182.086 691.141 182.696Q691.393 183.306 691.615 183.928Q691.836 184.55 692.027 185.182Q692.218 185.814 692.378 186.454Q692.537 187.095 692.666 187.742Q692.794 188.39 692.89 189.043Q692.986 189.696 693.05 190.353Q693.115 191.01 693.147 191.669Q693.179 192.329 693.178 192.989Q693.178 193.649 693.145 194.308Q693.112 194.968 693.047 195.625Q692.982 196.282 692.885 196.935Q692.788 197.588 692.659 198.235Q692.531 198.882 692.37 199.523Q692.21 200.163 692.018 200.795Q691.827 201.427 691.604 202.048Q691.382 202.67 691.13 203.28Q690.877 203.89 690.595 204.486Q690.313 205.083 690.002 205.666Q689.691 206.248 689.352 206.814Q689.013 207.381 688.647 207.93Q688.28 208.479 687.887 209.01Q687.495 209.54 687.076 210.051Q686.658 210.561 686.215 211.051Q685.772 211.541 685.306 212.008Q684.84 212.475 684.351 212.919Q683.862 213.363 683.353 213.782Q682.843 214.202 682.313 214.596Q681.784 214.99 681.235 215.357Q680.687 215.725 680.121 216.065Q679.556 216.406 678.974 216.718Q678.392 217.03 677.796 217.313Q677.2 217.597 676.59 217.85Q675.981 218.104 675.36 218.328Q674.739 218.551 674.107 218.744Q673.476 218.937 672.836 219.099Q672.196 219.261 671.549 219.391Q670.902 219.522 670.249 219.62Q669.594 219.719 668.934 219.785Q668.274 219.852 667.612 219.886Q666.95 219.92 666.287 219.921Q665.624 219.923 664.962 219.892Q664.3 219.86 663.64 219.797Q662.98 219.733 662.324 219.637Q661.668 219.541 661.018 219.413Q660.367 219.284 659.724 219.124Q659.081 218.964 658.446 218.773Q657.811 218.581 657.187 218.359Q656.562 218.136 655.95 217.883Q655.337 217.631 654.737 217.348Q654.138 217.065 653.553 216.753Q652.968 216.441 652.399 216.101Q651.83 215.761 651.278 215.393Q650.727 215.025 650.194 214.631Q649.661 214.236 649.148 213.816Q648.636 213.396 648.144 212.951Q647.653 212.506 647.184 212.037Q646.715 211.569 646.269 211.078Q645.824 210.587 645.403 210.074Q644.982 209.562 644.587 209.03Q644.193 208.497 643.824 207.946Q643.456 207.395 643.115 206.826Q642.774 206.258 642.462 205.673Q642.149 205.088 641.866 204.489Q641.583 203.889 641.329 203.277Q641.076 202.664 640.853 202.04Q640.63 201.416 640.438 200.781Q640.246 200.147 640.085 199.504Q639.924 198.86 639.796 198.21Q639.667 197.56 639.57 196.904Q639.473 196.248 639.409 195.588Q639.345 194.929 639.313 194.266Q639.281 193.604 639.282 192.941Q639.283 192.278 639.316 191.616Q639.349 190.954 639.415 190.295Q639.481 189.635 639.579 188.979Q639.678 188.324 639.808 187.674Q639.938 187.024 640.101 186.381Q640.263 185.738 640.456 185.104Q640.65 184.47 640.874 183.847Q641.099 183.223 641.354 182.611Q641.609 181.999 641.894 181.4Q642.178 180.802 642.492 180.218Q642.806 179.634 643.148 179.066Q643.49 178.498 643.86 177.948Q644.229 177.397 644.626 176.866Q645.022 176.335 645.444 175.823Q645.866 175.312 646.312 174.822Q646.759 174.332 647.229 173.864Q647.699 173.397 648.192 172.953Q648.684 172.51 649.198 172.091Q649.711 171.672 650.245 171.278Q650.779 170.885 651.331 170.519Q651.884 170.152 652.453 169.813Q653.023 169.474 653.609 169.164Q654.194 168.853 654.795 168.572Q655.395 168.291 656.008 168.039Q656.622 167.788 657.247 167.567Q657.872 167.346 658.507 167.156Q659.142 166.966 659.786 166.807Q660.429 166.649 661.08 166.522Q661.731 166.396 662.387 166.301Z"/>
	<path fill="#427AA1" d="M630.433 272.844Q631.09 272.813 631.747 272.815Q632.405 272.817 633.061 272.85Q633.718 272.884 634.372 272.95Q635.027 273.015 635.677 273.113Q636.327 273.211 636.972 273.34Q637.616 273.469 638.254 273.63Q638.891 273.791 639.52 273.982Q640.149 274.174 640.768 274.396Q641.387 274.618 641.994 274.871Q642.602 275.123 643.196 275.404Q643.79 275.686 644.37 275.996Q644.949 276.306 645.513 276.645Q646.077 276.983 646.624 277.348Q647.17 277.714 647.698 278.105Q648.227 278.497 648.735 278.914Q649.243 279.331 649.731 279.772Q650.218 280.214 650.683 280.678Q651.148 281.143 651.59 281.63Q652.032 282.117 652.45 282.625Q652.868 283.132 653.26 283.66Q653.652 284.188 654.018 284.734Q654.384 285.28 654.723 285.844Q655.062 286.407 655.373 286.986Q655.684 287.566 655.966 288.16Q656.248 288.754 656.501 289.361Q656.754 289.967 656.977 290.586Q657.2 291.205 657.392 291.833Q657.585 292.462 657.746 293.099Q657.907 293.737 658.038 294.381Q658.168 295.026 658.266 295.676Q658.365 296.326 658.431 296.98Q658.497 297.634 658.532 298.291Q658.566 298.948 658.569 299.605Q658.571 300.263 658.541 300.919Q658.511 301.576 658.45 302.231Q658.388 302.885 658.294 303.536Q658.2 304.187 658.075 304.833Q657.949 305.478 657.792 306.117Q657.635 306.755 657.447 307.385Q657.259 308.015 657.041 308.635Q656.822 309.255 656.574 309.864Q656.325 310.473 656.047 311.069Q655.769 311.665 655.462 312.246Q655.155 312.828 654.82 313.394Q654.485 313.959 654.123 314.508Q653.761 315.057 653.373 315.588Q652.984 316.118 652.57 316.629Q652.156 317.14 651.718 317.63Q651.279 318.12 650.817 318.587Q650.355 319.055 649.871 319.5Q649.387 319.945 648.881 320.366Q648.376 320.786 647.851 321.182Q647.325 321.577 646.781 321.946Q646.237 322.315 645.676 322.658Q645.114 323 644.537 323.314Q643.959 323.629 643.367 323.914Q642.775 324.2 642.169 324.457Q641.564 324.713 640.947 324.94Q640.329 325.166 639.702 325.362Q639.074 325.558 638.438 325.723Q637.801 325.889 637.158 326.023Q636.514 326.156 635.864 326.259Q635.215 326.361 634.561 326.431Q633.907 326.502 633.251 326.54Q632.59 326.579 631.927 326.585Q631.265 326.591 630.603 326.564Q629.941 326.537 629.281 326.478Q628.621 326.419 627.965 326.327Q627.309 326.236 626.658 326.112Q626.007 325.988 625.363 325.832Q624.719 325.677 624.084 325.489Q623.448 325.302 622.823 325.084Q622.197 324.865 621.583 324.617Q620.969 324.368 620.369 324.089Q619.768 323.81 619.181 323.502Q618.595 323.194 618.024 322.857Q617.453 322.521 616.9 322.156Q616.347 321.792 615.812 321.401Q615.277 321.01 614.762 320.593Q614.248 320.176 613.754 319.734Q613.26 319.292 612.789 318.827Q612.318 318.361 611.87 317.873Q611.422 317.385 610.999 316.875Q610.576 316.365 610.178 315.836Q609.781 315.306 609.409 314.757Q609.038 314.208 608.695 313.641Q608.351 313.075 608.036 312.492Q607.721 311.91 607.435 311.312Q607.149 310.715 606.892 310.104Q606.636 309.493 606.41 308.87Q606.184 308.247 605.989 307.614Q605.794 306.981 605.631 306.339Q605.467 305.697 605.335 305.048Q605.203 304.399 605.104 303.744Q605.004 303.089 604.937 302.43Q604.87 301.771 604.835 301.109Q604.8 300.447 604.798 299.785Q604.796 299.122 604.827 298.461Q604.857 297.799 604.92 297.139Q604.983 296.48 605.079 295.824Q605.174 295.169 605.302 294.519Q605.43 293.869 605.589 293.226Q605.749 292.583 605.94 291.948Q606.131 291.314 606.353 290.69Q606.575 290.066 606.827 289.453Q607.08 288.841 607.362 288.242Q607.645 287.642 607.956 287.058Q608.268 286.473 608.608 285.904Q608.948 285.336 609.315 284.785Q609.683 284.233 610.077 283.701Q610.471 283.169 610.891 282.656Q611.311 282.144 611.756 281.653Q612.2 281.162 612.669 280.693Q613.137 280.225 613.628 279.78Q614.119 279.335 614.631 278.915Q615.143 278.495 615.675 278.1Q616.208 277.706 616.759 277.338Q617.31 276.97 617.878 276.63Q618.447 276.29 619.031 275.978Q619.616 275.666 620.215 275.384Q620.814 275.101 621.426 274.848Q622.039 274.596 622.663 274.373Q623.287 274.151 623.921 273.96Q624.555 273.769 625.198 273.609Q625.841 273.449 626.491 273.321Q627.141 273.193 627.797 273.097Q628.452 273.002 629.112 272.938Q629.771 272.875 630.433 272.844Z"/>
	<path fill="#427AA1" d="M698.313 272.801Q698.966 272.74 699.622 272.711Q700.277 272.683 700.933 272.686Q701.589 272.69 702.245 272.725Q702.9 272.761 703.552 272.829Q704.205 272.896 704.853 272.996Q705.502 273.096 706.145 273.227Q706.788 273.359 707.423 273.522Q708.059 273.684 708.686 273.878Q709.312 274.072 709.929 274.296Q710.545 274.521 711.15 274.775Q711.755 275.029 712.347 275.313Q712.938 275.597 713.515 275.909Q714.092 276.222 714.653 276.562Q715.214 276.902 715.758 277.27Q716.301 277.637 716.826 278.031Q717.351 278.425 717.856 278.844Q718.361 279.263 718.844 279.706Q719.328 280.149 719.79 280.616Q720.251 281.082 720.689 281.571Q721.127 282.059 721.54 282.569Q721.954 283.078 722.342 283.607Q722.73 284.136 723.091 284.684Q723.453 285.231 723.787 285.796Q724.121 286.361 724.427 286.941Q724.733 287.521 725.011 288.116Q725.288 288.711 725.536 289.318Q725.783 289.926 726.001 290.545Q726.219 291.164 726.405 291.793Q726.592 292.422 726.748 293.059Q726.904 293.696 727.029 294.34Q727.153 294.985 727.246 295.634Q727.338 296.284 727.399 296.937Q727.46 297.59 727.488 298.246Q727.517 298.901 727.513 299.557Q727.509 300.214 727.473 300.869Q727.438 301.524 727.37 302.176Q727.302 302.829 727.202 303.478Q727.102 304.126 726.97 304.769Q726.838 305.412 726.675 306.047Q726.512 306.683 726.318 307.309Q726.124 307.936 725.9 308.553Q725.675 309.169 725.42 309.774Q725.166 310.379 724.882 310.97Q724.598 311.562 724.285 312.139Q723.973 312.716 723.632 313.276Q723.292 313.837 722.924 314.381Q722.556 314.924 722.162 315.449Q721.769 315.974 721.349 316.478Q720.93 316.983 720.487 317.467Q720.043 317.95 719.577 318.412Q719.11 318.873 718.621 319.311Q718.133 319.748 717.623 320.162Q717.113 320.575 716.584 320.963Q716.055 321.35 715.507 321.712Q714.959 322.073 714.395 322.407Q713.83 322.741 713.249 323.047Q712.669 323.353 712.074 323.63Q711.479 323.907 710.872 324.154Q710.264 324.402 709.645 324.619Q709.026 324.837 708.397 325.023Q707.768 325.21 707.13 325.366Q706.493 325.521 705.849 325.646Q705.205 325.77 704.555 325.862Q703.905 325.955 703.252 326.015Q702.599 326.075 701.944 326.104Q701.289 326.132 700.633 326.128Q699.977 326.124 699.322 326.088Q698.667 326.052 698.015 325.984Q697.363 325.916 696.714 325.816Q696.066 325.716 695.424 325.584Q694.781 325.452 694.146 325.289Q693.511 325.126 692.884 324.932Q692.258 324.738 691.642 324.513Q691.026 324.289 690.421 324.034Q689.817 323.78 689.225 323.496Q688.634 323.212 688.058 322.9Q687.481 322.587 686.921 322.247Q686.36 321.906 685.817 321.539Q685.274 321.171 684.749 320.777Q684.225 320.384 683.72 319.965Q683.215 319.546 682.732 319.103Q682.249 318.659 681.788 318.193Q681.327 317.727 680.889 317.238Q680.451 316.75 680.038 316.24Q679.625 315.731 679.237 315.202Q678.85 314.673 678.488 314.126Q678.127 313.578 677.793 313.014Q677.459 312.449 677.153 311.869Q676.848 311.289 676.571 310.694Q676.294 310.1 676.046 309.493Q675.798 308.885 675.581 308.267Q675.364 307.648 675.177 307.019Q674.99 306.391 674.834 305.754Q674.678 305.116 674.554 304.473Q674.43 303.829 674.337 303.179Q674.245 302.53 674.184 301.877Q674.123 301.224 674.095 300.569Q674.066 299.914 674.07 299.258Q674.074 298.602 674.11 297.947Q674.145 297.292 674.213 296.64Q674.281 295.987 674.381 295.339Q674.481 294.691 674.612 294.049Q674.744 293.406 674.907 292.771Q675.07 292.135 675.264 291.509Q675.457 290.882 675.682 290.266Q675.906 289.65 676.161 289.045Q676.415 288.441 676.698 287.849Q676.982 287.258 677.294 286.681Q677.607 286.105 677.947 285.544Q678.287 284.983 678.655 284.44Q679.022 283.897 679.416 283.372Q679.809 282.848 680.228 282.343Q680.647 281.838 681.09 281.355Q681.533 280.871 681.999 280.41Q682.465 279.949 682.954 279.511Q683.442 279.073 683.951 278.66Q684.461 278.246 684.989 277.859Q685.518 277.471 686.066 277.109Q686.613 276.748 687.177 276.414Q687.742 276.08 688.322 275.774Q688.902 275.468 689.496 275.19Q690.09 274.913 690.698 274.665Q691.305 274.418 691.924 274.2Q692.542 273.982 693.171 273.795Q693.8 273.608 694.437 273.452Q695.074 273.296 695.718 273.172Q696.361 273.047 697.011 272.955Q697.66 272.862 698.313 272.801Z"/>
	<path fill="#427AA1" d="M717.239 207.222Q717.884 207.105 718.534 207.021Q719.184 206.936 719.837 206.883Q720.491 206.83 721.146 206.809Q721.801 206.789 722.457 206.8Q723.112 206.812 723.766 206.855Q724.42 206.899 725.071 206.975Q725.722 207.05 726.369 207.158Q727.016 207.265 727.656 207.404Q728.297 207.543 728.93 207.714Q729.563 207.884 730.187 208.085Q730.811 208.286 731.424 208.518Q732.037 208.749 732.638 209.011Q733.24 209.272 733.827 209.563Q734.415 209.853 734.987 210.172Q735.56 210.491 736.116 210.838Q736.673 211.185 737.211 211.558Q737.75 211.932 738.27 212.331Q738.789 212.731 739.289 213.156Q739.788 213.58 740.266 214.029Q740.744 214.477 741.2 214.949Q741.655 215.42 742.087 215.913Q742.519 216.407 742.926 216.921Q743.333 217.434 743.714 217.968Q744.095 218.501 744.45 219.052Q744.805 219.603 745.132 220.171Q745.459 220.739 745.758 221.323Q746.057 221.906 746.327 222.503Q746.597 223.1 746.838 223.71Q747.078 224.32 747.288 224.941Q747.499 225.562 747.678 226.192Q747.857 226.823 748.006 227.461Q748.154 228.1 748.271 228.745Q748.388 229.39 748.473 230.04Q748.558 230.69 748.611 231.343Q748.664 231.997 748.685 232.652Q748.706 233.307 748.695 233.963Q748.683 234.618 748.64 235.272Q748.597 235.926 748.521 236.578Q748.446 237.229 748.339 237.876Q748.231 238.522 748.092 239.163Q747.953 239.804 747.783 240.437Q747.613 241.07 747.412 241.694Q747.211 242.318 746.98 242.931Q746.749 243.544 746.487 244.146Q746.226 244.747 745.936 245.335Q745.646 245.922 745.327 246.495Q745.008 247.068 744.661 247.625Q744.315 248.181 743.941 248.72Q743.568 249.259 743.168 249.778Q742.769 250.298 742.344 250.798Q741.92 251.297 741.472 251.776Q741.023 252.254 740.552 252.709Q740.081 253.165 739.587 253.597Q739.094 254.029 738.581 254.436Q738.067 254.843 737.534 255.225Q737.001 255.606 736.449 255.961Q735.898 256.316 735.33 256.643Q734.762 256.971 734.179 257.27Q733.596 257.569 732.999 257.84Q732.401 258.11 731.792 258.35Q731.182 258.591 730.561 258.801Q729.94 259.012 729.309 259.191Q728.679 259.371 728.041 259.519Q727.402 259.668 726.757 259.785Q726.112 259.902 725.461 259.987Q724.811 260.073 724.158 260.126Q723.504 260.179 722.849 260.2Q722.193 260.221 721.537 260.21Q720.882 260.199 720.227 260.156Q719.573 260.112 718.922 260.037Q718.27 259.962 717.623 259.855Q716.976 259.747 716.335 259.609Q715.694 259.47 715.061 259.3Q714.427 259.129 713.803 258.928Q713.179 258.727 712.565 258.496Q711.952 258.265 711.35 258.003Q710.749 257.742 710.161 257.452Q709.573 257.161 709 256.842Q708.427 256.523 707.87 256.177Q707.313 255.83 706.774 255.456Q706.235 255.083 705.715 254.683Q705.195 254.284 704.696 253.859Q704.196 253.434 703.717 252.986Q703.239 252.537 702.783 252.065Q702.328 251.594 701.896 251.101Q701.464 250.607 701.056 250.093Q700.649 249.579 700.267 249.046Q699.886 248.512 699.531 247.961Q699.176 247.41 698.849 246.841Q698.521 246.273 698.222 245.69Q697.923 245.106 697.652 244.508Q697.382 243.911 697.142 243.301Q696.901 242.691 696.691 242.07Q696.481 241.448 696.301 240.818Q696.122 240.187 695.973 239.548Q695.825 238.909 695.708 238.264Q695.591 237.619 695.506 236.968Q695.421 236.318 695.368 235.665Q695.315 235.011 695.294 234.355Q695.273 233.7 695.285 233.044Q695.296 232.389 695.339 231.734Q695.383 231.08 695.458 230.428Q695.534 229.777 695.641 229.13Q695.749 228.483 695.888 227.842Q696.027 227.201 696.197 226.568Q696.368 225.935 696.569 225.311Q696.77 224.686 697.002 224.073Q697.233 223.459 697.495 222.858Q697.756 222.256 698.047 221.669Q698.337 221.081 698.657 220.508Q698.976 219.935 699.322 219.378Q699.669 218.822 700.043 218.283Q700.417 217.744 700.817 217.224Q701.216 216.704 701.641 216.205Q702.066 215.705 702.515 215.227Q702.964 214.749 703.435 214.293Q703.907 213.837 704.401 213.406Q704.894 212.974 705.408 212.567Q705.922 212.159 706.456 211.778Q706.989 211.397 707.541 211.042Q708.092 210.687 708.661 210.36Q709.229 210.032 709.813 209.733Q710.396 209.435 710.994 209.165Q711.592 208.895 712.202 208.654Q712.812 208.414 713.433 208.204Q714.055 207.994 714.685 207.814Q715.316 207.635 715.955 207.487Q716.594 207.339 717.239 207.222Z"/>
	<path fill="#427AA1" d="M607.761 208.192Q608.409 208.147 609.059 208.134Q609.709 208.121 610.359 208.139Q611.009 208.158 611.657 208.209Q612.305 208.26 612.949 208.342Q613.594 208.425 614.234 208.539Q614.874 208.653 615.507 208.798Q616.141 208.944 616.767 209.12Q617.392 209.297 618.008 209.504Q618.624 209.71 619.23 209.947Q619.835 210.184 620.428 210.451Q621.021 210.717 621.6 211.013Q622.179 211.308 622.743 211.631Q623.306 211.955 623.854 212.306Q624.401 212.656 624.93 213.034Q625.46 213.411 625.97 213.814Q626.48 214.216 626.97 214.644Q627.459 215.071 627.927 215.522Q628.396 215.973 628.841 216.447Q629.286 216.92 629.708 217.415Q630.129 217.91 630.526 218.424Q630.923 218.939 631.294 219.473Q631.665 220.007 632.009 220.558Q632.353 221.11 632.67 221.677Q632.987 222.245 633.275 222.827Q633.564 223.41 633.823 224.006Q634.082 224.602 634.312 225.21Q634.542 225.818 634.742 226.436Q634.941 227.055 635.11 227.683Q635.279 228.31 635.417 228.945Q635.555 229.581 635.662 230.222Q635.768 230.863 635.843 231.509Q635.918 232.154 635.961 232.803Q636.004 233.452 636.015 234.101Q636.026 234.751 636.005 235.401Q635.984 236.051 635.932 236.699Q635.879 237.346 635.794 237.991Q635.71 238.635 635.594 239.275Q635.477 239.915 635.33 240.548Q635.182 241.181 635.004 241.806Q634.826 242.431 634.617 243.046Q634.408 243.662 634.169 244.266Q633.93 244.871 633.661 245.463Q633.393 246.055 633.096 246.633Q632.799 247.211 632.473 247.774Q632.148 248.337 631.796 248.883Q631.443 249.429 631.064 249.957Q630.685 250.485 630.281 250.994Q629.876 251.503 629.447 251.991Q629.018 252.479 628.566 252.946Q628.113 253.413 627.638 253.857Q627.164 254.301 626.667 254.721Q626.171 255.141 625.655 255.536Q625.139 255.931 624.604 256.3Q624.069 256.669 623.517 257.012Q622.964 257.354 622.396 257.669Q621.827 257.984 621.243 258.27Q620.66 258.557 620.063 258.814Q619.466 259.072 618.858 259.3Q618.249 259.528 617.63 259.725Q617.01 259.923 616.382 260.09Q615.754 260.257 615.118 260.393Q614.483 260.529 613.841 260.633Q613.2 260.738 612.554 260.81Q611.908 260.883 611.259 260.924Q610.613 260.965 609.966 260.974Q609.318 260.983 608.671 260.96Q608.024 260.938 607.379 260.884Q606.734 260.829 606.093 260.743Q605.451 260.658 604.814 260.541Q604.178 260.423 603.547 260.275Q602.917 260.127 602.295 259.948Q601.673 259.77 601.06 259.56Q600.448 259.351 599.846 259.113Q599.244 258.874 598.655 258.606Q598.066 258.338 597.49 258.041Q596.915 257.745 596.354 257.42Q595.794 257.096 595.25 256.745Q594.707 256.393 594.181 256.015Q593.655 255.638 593.148 255.235Q592.642 254.832 592.155 254.405Q591.669 253.978 591.204 253.527Q590.739 253.077 590.297 252.604Q589.855 252.131 589.436 251.637Q589.018 251.143 588.624 250.63Q588.23 250.116 587.862 249.583Q587.493 249.051 587.152 248.501Q586.81 247.951 586.496 247.385Q586.181 246.82 585.895 246.239Q585.609 245.658 585.351 245.064Q585.094 244.471 584.865 243.865Q584.637 243.259 584.439 242.643Q584.241 242.026 584.073 241.401Q583.905 240.776 583.768 240.143Q583.631 239.51 583.526 238.872Q583.42 238.233 583.345 237.59Q583.271 236.947 583.228 236.301Q583.185 235.655 583.174 235.008Q583.163 234.361 583.183 233.714Q583.204 233.066 583.256 232.421Q583.308 231.776 583.392 231.134Q583.476 230.492 583.591 229.855Q583.706 229.218 583.852 228.588Q583.998 227.957 584.175 227.334Q584.352 226.711 584.559 226.098Q584.766 225.485 585.003 224.882Q585.24 224.28 585.506 223.69Q585.772 223.1 586.067 222.523Q586.362 221.947 586.684 221.386Q587.007 220.824 587.356 220.28Q587.706 219.735 588.082 219.208Q588.458 218.681 588.859 218.173Q589.26 217.665 589.686 217.177Q590.112 216.689 590.561 216.223Q591.01 215.757 591.481 215.313Q591.953 214.869 592.445 214.449Q592.938 214.029 593.45 213.634Q593.963 213.238 594.494 212.868Q595.025 212.498 595.574 212.155Q596.122 211.811 596.687 211.495Q597.252 211.179 597.832 210.891Q598.411 210.603 599.005 210.343Q599.598 210.084 600.203 209.854Q600.808 209.624 601.423 209.423Q602.039 209.223 602.664 209.053Q603.288 208.884 603.921 208.745Q604.553 208.606 605.191 208.498Q605.83 208.39 606.472 208.313Q607.115 208.237 607.761 208.192Z"/>
	<path fill="#427AA1" d="M662.711 235.706Q663.115 235.617 663.524 235.548Q663.932 235.479 664.343 235.43Q664.754 235.381 665.167 235.352Q665.581 235.323 665.995 235.315Q666.409 235.306 666.823 235.318Q667.237 235.33 667.649 235.362Q668.062 235.394 668.473 235.447Q668.884 235.499 669.291 235.572Q669.699 235.644 670.103 235.736Q670.507 235.829 670.905 235.941Q671.304 236.053 671.697 236.184Q672.089 236.316 672.475 236.466Q672.861 236.617 673.239 236.786Q673.617 236.956 673.986 237.143Q674.355 237.331 674.714 237.537Q675.074 237.742 675.423 237.965Q675.772 238.188 676.109 238.428Q676.447 238.668 676.772 238.924Q677.098 239.18 677.41 239.452Q677.723 239.723 678.021 240.01Q678.32 240.297 678.605 240.598Q678.889 240.899 679.158 241.213Q679.427 241.528 679.681 241.855Q679.934 242.183 680.171 242.522Q680.409 242.862 680.629 243.213Q680.849 243.563 681.052 243.924Q681.254 244.286 681.439 244.656Q681.624 245.027 681.79 245.406Q681.956 245.785 682.104 246.172Q682.251 246.559 682.38 246.953Q682.508 247.347 682.617 247.746Q682.726 248.146 682.815 248.55Q682.904 248.954 682.973 249.363Q683.043 249.771 683.092 250.182Q683.141 250.593 683.17 251.006Q683.198 251.419 683.207 251.833Q683.216 252.247 683.204 252.661Q683.192 253.075 683.16 253.488Q683.128 253.901 683.076 254.312Q683.023 254.723 682.951 255.13Q682.879 255.538 682.786 255.942Q682.694 256.345 682.582 256.744Q682.47 257.143 682.339 257.536Q682.207 257.928 682.057 258.314Q681.906 258.7 681.737 259.078Q681.568 259.456 681.38 259.825Q681.193 260.194 680.987 260.553Q680.782 260.913 680.559 261.262Q680.336 261.611 680.096 261.949Q679.857 262.286 679.601 262.612Q679.345 262.937 679.073 263.25Q678.801 263.562 678.515 263.861Q678.228 264.16 677.927 264.445Q677.626 264.729 677.312 264.998Q676.997 265.268 676.67 265.521Q676.342 265.775 676.003 266.012Q675.663 266.249 675.313 266.469Q674.962 266.69 674.601 266.892Q674.24 267.095 673.869 267.28Q673.499 267.465 673.12 267.631Q672.74 267.798 672.354 267.945Q671.967 268.093 671.573 268.221Q671.179 268.35 670.78 268.459Q670.38 268.568 669.976 268.657Q669.572 268.746 669.163 268.816Q668.755 268.885 668.343 268.934Q667.932 268.983 667.519 269.012Q667.106 269.041 666.691 269.05Q666.277 269.059 665.863 269.047Q665.449 269.035 665.036 269.003Q664.623 268.971 664.212 268.919Q663.801 268.867 663.393 268.795Q662.985 268.722 662.582 268.63Q662.178 268.538 661.779 268.426Q661.38 268.314 660.987 268.183Q660.594 268.051 660.208 267.901Q659.823 267.75 659.445 267.581Q659.066 267.412 658.697 267.224Q658.328 267.036 657.968 266.831Q657.608 266.625 657.259 266.402Q656.91 266.179 656.572 265.94Q656.234 265.7 655.909 265.444Q655.583 265.188 655.271 264.916Q654.958 264.644 654.659 264.357Q654.36 264.071 654.076 263.77Q653.791 263.469 653.522 263.154Q653.252 262.839 652.999 262.512Q652.745 262.184 652.508 261.844Q652.271 261.505 652.05 261.154Q651.83 260.803 651.627 260.442Q651.425 260.081 651.24 259.71Q651.055 259.339 650.888 258.96Q650.722 258.581 650.574 258.194Q650.427 257.807 650.298 257.413Q650.17 257.019 650.061 256.619Q649.952 256.22 649.863 255.815Q649.774 255.41 649.705 255.002Q649.635 254.594 649.586 254.182Q649.537 253.771 649.508 253.358Q649.479 252.945 649.471 252.53Q649.462 252.116 649.474 251.702Q649.486 251.288 649.518 250.875Q649.55 250.462 649.603 250.051Q649.655 249.64 649.727 249.232Q649.8 248.825 649.892 248.421Q649.985 248.017 650.097 247.618Q650.209 247.219 650.34 246.827Q650.472 246.434 650.622 246.048Q650.773 245.662 650.942 245.284Q651.112 244.906 651.3 244.537Q651.487 244.167 651.693 243.808Q651.898 243.448 652.121 243.099Q652.345 242.75 652.584 242.412Q652.824 242.075 653.081 241.749Q653.337 241.424 653.609 241.111Q653.88 240.798 654.167 240.5Q654.454 240.201 654.755 239.916Q655.057 239.632 655.371 239.363Q655.686 239.093 656.014 238.84Q656.341 238.586 656.681 238.349Q657.021 238.112 657.371 237.892Q657.722 237.672 658.084 237.469Q658.445 237.266 658.816 237.082Q659.186 236.897 659.566 236.731Q659.945 236.564 660.332 236.417Q660.719 236.269 661.113 236.141Q661.507 236.013 661.907 235.904Q662.307 235.795 662.711 235.706ZM666.745 262.168Q666.994 262.158 667.242 262.136Q667.491 262.114 667.737 262.079Q667.984 262.045 668.229 261.998Q668.474 261.952 668.716 261.894Q668.959 261.835 669.198 261.765Q669.437 261.695 669.672 261.613Q669.908 261.531 670.139 261.437Q670.37 261.344 670.596 261.239Q670.822 261.134 671.043 261.019Q671.263 260.903 671.478 260.776Q671.693 260.65 671.901 260.513Q672.11 260.376 672.311 260.229Q672.512 260.082 672.706 259.926Q672.9 259.769 673.086 259.603Q673.272 259.437 673.449 259.262Q673.627 259.087 673.796 258.904Q673.964 258.72 674.124 258.529Q674.283 258.337 674.433 258.138Q674.583 257.939 674.723 257.733Q674.863 257.527 674.993 257.314Q675.122 257.101 675.241 256.882Q675.36 256.663 675.468 256.438Q675.576 256.213 675.673 255.984Q675.77 255.754 675.855 255.52Q675.941 255.286 676.014 255.048Q676.088 254.81 676.15 254.568Q676.212 254.327 676.262 254.083Q676.312 253.839 676.35 253.592Q676.388 253.346 676.414 253.098Q676.44 252.85 676.454 252.601Q676.467 252.352 676.469 252.103Q676.47 251.854 676.459 251.605Q676.448 251.356 676.425 251.108Q676.402 250.86 676.366 250.613Q676.331 250.366 676.284 250.122Q676.236 249.877 676.177 249.635Q676.118 249.393 676.046 249.154Q675.975 248.915 675.892 248.68Q675.809 248.445 675.715 248.214Q675.621 247.983 675.515 247.758Q675.409 247.532 675.293 247.312Q675.176 247.091 675.049 246.877Q674.922 246.663 674.784 246.455Q674.646 246.247 674.499 246.046Q674.351 245.846 674.194 245.652Q674.036 245.459 673.87 245.274Q673.703 245.089 673.527 244.912Q673.352 244.735 673.167 244.567Q672.983 244.399 672.791 244.24Q672.599 244.081 672.399 243.932Q672.2 243.783 671.993 243.644Q671.786 243.505 671.572 243.376Q671.359 243.247 671.14 243.129Q670.92 243.011 670.695 242.904Q670.47 242.797 670.24 242.701Q670.01 242.605 669.775 242.521Q669.541 242.436 669.303 242.363Q669.064 242.29 668.823 242.229Q668.581 242.168 668.337 242.119Q668.092 242.07 667.846 242.033Q667.599 241.996 667.351 241.971Q667.103 241.946 666.854 241.934Q666.605 241.921 666.356 241.921Q666.107 241.92 665.858 241.932Q665.61 241.944 665.363 241.968Q665.117 241.992 664.871 242.028Q664.626 242.064 664.383 242.112Q664.139 242.16 663.898 242.219Q663.658 242.279 663.42 242.351Q663.183 242.422 662.949 242.505Q662.715 242.588 662.486 242.683Q662.257 242.777 662.032 242.883Q661.808 242.988 661.589 243.105Q661.37 243.221 661.157 243.348Q660.944 243.475 660.737 243.612Q660.531 243.749 660.331 243.897Q660.131 244.044 659.939 244.2Q659.747 244.357 659.563 244.523Q659.378 244.689 659.203 244.864Q659.027 245.039 658.859 245.222Q658.692 245.405 658.534 245.596Q658.376 245.788 658.228 245.986Q658.079 246.185 657.941 246.391Q657.802 246.596 657.674 246.809Q657.546 247.021 657.428 247.239Q657.31 247.457 657.203 247.681Q657.096 247.905 657 248.134Q656.905 248.362 656.82 248.595Q656.735 248.829 656.662 249.066Q656.589 249.303 656.528 249.543Q656.467 249.783 656.417 250.026Q656.368 250.269 656.33 250.514Q656.293 250.76 656.267 251.006Q656.242 251.253 656.228 251.501Q656.215 251.748 656.214 251.996Q656.212 252.244 656.223 252.492Q656.234 252.74 656.257 252.987Q656.28 253.234 656.315 253.479Q656.35 253.725 656.397 253.968Q656.444 254.212 656.503 254.453Q656.562 254.693 656.632 254.931Q656.703 255.169 656.785 255.403Q656.867 255.637 656.961 255.867Q657.054 256.096 657.159 256.321Q657.263 256.546 657.379 256.766Q657.494 256.985 657.62 257.198Q657.747 257.412 657.883 257.619Q658.019 257.826 658.166 258.026Q658.312 258.227 658.468 258.419Q658.624 258.612 658.789 258.797Q658.955 258.982 659.129 259.159Q659.303 259.335 659.486 259.503Q659.668 259.671 659.859 259.83Q660.049 259.988 660.247 260.138Q660.445 260.287 660.651 260.426Q660.856 260.566 661.067 260.695Q661.279 260.824 661.497 260.942Q661.715 261.061 661.938 261.169Q662.161 261.277 662.39 261.373Q662.618 261.47 662.851 261.556Q663.084 261.641 663.32 261.715Q663.557 261.789 663.797 261.851Q664.037 261.914 664.28 261.964Q664.523 262.015 664.768 262.053Q665.013 262.092 665.259 262.118Q665.506 262.145 665.754 262.159Q666.001 262.173 666.249 262.176Q666.497 262.178 666.745 262.168Z"/>
	<path fill="#427AA1" d="M944.854 409.604C946.089 409.322 945.469 409.291 946.71 409.747C947.821 412.611 946.987 463.567 946.986 470.731L947.108 678.981C933.126 675.955 919.242 670.557 905.579 666.309Q871.681 656.045 837.63 646.303C830.07 644.209 822.384 642.349 814.938 639.878C811.66 638.791 804.608 636.761 803.197 633.351C802.254 631.074 802.48 627.234 802.433 624.745C801.805 591.825 802.522 558.765 802.524 525.827L802.451 481.703C802.43 473.629 802.135 465.445 802.512 457.386C802.625 454.964 802.936 452.667 803.744 450.368C808.757 446.443 847.342 437.198 856.752 434.544L944.854 409.604Z"/>
	<path fill="#427AA1" d="M450.493 707.028L556.684 707.018C562.826 713.941 567.912 722.613 573.074 730.336L605.565 779.909L654.06 852.921C661.693 864.444 669.636 875.731 676.845 887.533C666.938 887.218 656.995 887.417 647.084 887.433C641.722 887.441 636.01 887.829 630.721 886.919C616.708 863.93 601.305 841.732 586.358 819.34L532.471 738.496C528.037 738.279 523.562 738.414 519.122 738.431L519.43 844.25L519.508 878.473C507.427 877.881 495.1 878.39 482.997 878.499C483.639 831.592 482.829 784.634 483.096 737.72C480.268 737.792 477.388 737.607 474.558 737.527C464.878 754.011 452.71 769.457 441.818 785.186L371.42 887.161C357.542 887.104 341.355 886.026 327.69 887.539C332.579 879.194 338.421 871.278 343.942 863.338Q356.349 845.739 368.324 827.843Q397.726 783.637 427.99 740.017C435.523 729.055 442.751 717.838 450.493 707.028Z"/>
	<path fill="#427AA1" d="M172.177 476.758C177.55 475.811 192.733 476.618 199.02 476.604C198.423 502.824 199.019 529.18 199.07 555.414C184.913 554.534 170.44 554.99 156.25 554.989L128.013 554.992Q128.388 515.956 128.128 476.919C142.809 476.68 157.494 477.126 172.177 476.758Z"/>
	<path fill="#427AA1" d="M78.6437 458.023L119.498 457.894L119.456 572.389C105.925 572.626 92.3604 572.304 78.8214 572.422Q79.1843 535.573 79.0436 498.723C79.026 485.278 79.6422 471.409 78.6437 458.023ZM108.902 487.573C109.219 482.557 109.078 477.526 109.019 472.503Q98.844 472.314 88.668 472.445L88.7483 487.955C95.4652 487.44 102.18 487.767 108.902 487.573ZM89.0075 495.289L89.0224 510.323L109.052 510.473L109.092 495.335C102.455 495.409 95.6265 495.783 89.0075 495.289ZM88.9006 517.901L89.0455 533.316C95.6316 532.817 102.463 532.951 109.066 533.172C109.056 528.083 108.96 522.978 109.061 517.891L88.9006 517.901ZM88.9395 540.524C88.9426 545.523 88.8744 550.532 88.9893 555.53Q99.2124 555.459 109.435 555.591L109.413 540.535L88.9395 540.524Z"/>
	<path fill="#427AA1" d="M515.884 311.751L524.356 311.636C523.681 320.6 523.842 330.115 524.222 339.097C544.039 343.329 567.789 351.266 582.44 365.561C557.917 364.815 533.229 365.378 508.688 365.395C486.362 365.339 463.826 364.61 441.527 365.415C455.055 349.006 480.775 343.477 500.65 338.916C501.17 330.064 501.186 320.783 500.673 311.93Q508.278 311.763 515.884 311.751Z"/>
	<path fill="#427AA1" d="M162.546 419.239C174.49 419.581 186.563 419.149 198.518 419.061L198.557 458.262L192.75 458.339Q173.853 458.434 154.955 458.293C155.197 445.35 154.945 432.357 154.922 419.408L162.546 419.239Z"/>
	<path fill="#427AA1" d="M154.802 574.012C169.436 574.016 184.137 574.388 198.762 573.96C198.45 586.309 198.921 598.712 198.67 611.083L198.522 611.556C198.272 611.753 198.065 612.021 197.772 612.146C197.241 612.374 158.397 611.974 154.553 611.994C155.324 599.425 154.859 586.61 154.802 574.012Z"/>
</svg>
